<svg xmlns="http://www.w3.org/2000/svg" width="150" height="150"><path d="M29.688 15.186c-6.518.89-11.652 5.788-12.833 12.315-.556 3.07.04 6.114-.095 9.202-.239 5.483-.571 10.955-1.757 16.34-1.138 5.17-3.02 10.948-7.036 14.616-1.552 1.418-3.396 2.514-5.43 3.059-.763.204-2.238.163-2.406 1.126-.278 1.59-.028 3.435-.028 5.05 0 .5-.143 1.319.193 1.739.314.392 1.042.39 1.492.493 1.03.239 2.048.555 2.996 1.03C7.548 81.542 9.8 83.96 11.28 86.66c4.479 8.173 4.854 17.424 5.472 26.48.163 2.392-.267 4.752-.163 7.137a16.307 16.307 0 0 0 4.166 10.134c4.023 4.434 9.424 4.515 14.925 4.515H112.448c3.02 0 6.198.289 9.175-.274 1.646-.312 3.276-.941 4.681-1.857 1.123-.732 2.227-1.539 3.101-2.565 1.753-2.058 3.063-4.475 3.637-7.136.519-2.402.303-4.72.197-7.137-.101-2.332.038-4.806.197-7.136.27-3.961.705-7.946 1.56-11.832 1.123-5.094 2.964-10.754 6.857-14.429 1.566-1.478 3.526-2.688 5.61-3.246.763-.205 2.238-.164 2.406-1.126.277-1.59.028-3.436.028-5.05 0-.5.144-1.319-.193-1.739-.314-.393-1.042-.39-1.492-.494-1.029-.238-2.052-.55-2.996-1.03-2.903-1.477-5.15-4.042-6.683-6.879-4.348-8.043-4.903-17.545-5.294-26.48-.101-2.326.322-4.626.164-6.95-.26-3.808-1.778-7.588-4.494-10.312-4.105-4.117-9.192-4.148-14.588-4.148H37.926c-2.693 0-5.569-.285-8.238.08M85.86 72.95v.188c4.839.386 9.697 3.002 12.341 7.136 4.605 7.202 2.43 17.755-4.477 22.642-5.673 4.015-12.465 4.027-19.098 4.027H51.969V44.966c0-.491-.11-1.174.113-1.63.353-.718 1.859-.435 2.509-.435h7.677c5.605 0 11.265-.213 16.851.17 5.18.357 10.125 1.365 13.99 5.168 6.388 6.288 5.364 17.597-2.006 22.64-1.535 1.05-3.374 1.918-5.243 2.07M62.455 51.353v18.78c4.463 0 9.043.29 13.481-.155 2.316-.233 4.7-.593 6.74-1.807 5.434-3.231 6.004-12.046.188-15.256-2.87-1.585-6.183-1.562-9.362-1.562H62.455m0 26.669v20.658h11.609c3.863 0 7.973-.063 11.422-2.042 5.776-3.314 6.13-12.88.374-16.463-3.341-2.08-7.44-2.153-11.234-2.153z" style="fill:#ff521b;fill-opacity:1;stroke:none;stroke-width:.187524"/></svg>