<svg xmlns="http://www.w3.org/2000/svg" width="225" height="225"><path d="M182.036 209.417c-7.066-1.897-15.474-5.753-19.891-9.122-3.367-2.568-3.931-2.656-18.043-2.797-25.883-.26-44.302-6.553-57.904-19.782-4.435-4.313-11.118-13.731-11.153-15.719-.005-.29 2.188-.29 4.874 0 4.436.48 5.253.996 8.91 5.636 6.717 8.518 17.716 14.828 33.192 19.041 6.902 1.88 30.07 2.883 35.784 1.55 3.758-.876 4.39-.768 5.283.899 1.616 3.02 10.92 8.788 17.452 10.819 6.75 2.098 21.505 3.782 21.478 2.45-.01-.477-2.253-2.328-4.984-4.114-5.436-3.554-9.666-9.116-10.472-13.77-.458-2.643.034-3.398 4.326-6.628 5.96-4.487 12.627-14.257 14.779-21.658 5.152-17.725-4.883-37.148-24.858-48.111-7.503-4.118-7.681-4.304-7.102-7.405.326-1.75.943-3.568 1.37-4.04.78-.863 10.833 3.794 16.458 7.623 5.573 3.793 13.604 12.204 16.936 17.736 5.154 8.557 7.014 15.264 6.93 25-.109 12.876-4.465 22.938-14.543 33.594l-4.874 5.154 3.386 2.972c1.862 1.635 5.957 4.444 9.1 6.242 3.143 1.799 6.205 4.347 6.804 5.662 1.55 3.403-.589 6.899-5.4 8.824-4.978 1.992-20.325 1.961-27.839-.056zM14.066 164.81c-1.359-.723-3.137-2.504-3.953-3.957-2.247-4.003-.315-7.052 6.904-10.9 6.371-3.396 11.314-8.61 13.147-13.869.993-2.848.796-3.37-2.578-6.822C15.183 116.574 8 97.003 9.433 79.809c2.64-31.66 27.26-57.4 61.53-64.332 12.383-2.505 30.623-1.631 42.073 2.015 26.709 8.508 45.898 27.873 51.558 52.033 2.369 10.11 1.584 25.64-1.777 35.176-5.05 14.326-16.715 28.109-30.706 36.28-14.843 8.669-35.67 13.22-52.467 11.468l-8.848-.924-8.35 4.108c-14.166 6.968-23.481 9.62-35.41 10.085-7.446.29-11.219.026-12.97-.907zm29.62-11.312c5.584-1.844 13.7-5.136 18.035-7.316 7.621-3.832 8.065-3.93 13.349-2.95 7.109 1.316 25.822.357 33.465-1.717 29.199-7.92 48.89-31.076 48.89-57.49 0-27.162-20.435-51.238-50.214-59.164-11.746-3.126-28.816-2.865-40.676.62C19.53 39.297 2.61 90.01 33.912 123.262c6.196 6.582 6.359 6.892 5.722 10.874-1.236 7.727-6.454 15.573-13.204 19.854-2.388 1.514-4.026 3.07-3.64 3.457 1.24 1.24 10.458-.501 20.897-3.948zm6.35-49.974v-4.5h53v9h-53zm0-22.5v-4h76v8h-76zm0-22.5v-4.5h76v9h-76zm72 97.781c.824-.308 4.586-2.073 8.36-3.92l6.859-3.36h37.78v8l-27.25-.08c-14.987-.043-26.575-.331-25.75-.64zm36.661-25.78c3.726-4.458 3.821-4.5 10.05-4.5h6.288v9h-20.099z" style="fill:#000"/></svg>