<svg xmlns="http://www.w3.org/2000/svg" width="500" height="500"><path d="M232.752 1.732c-57.971 7.611-110.251 25.36-154.051 66.144-103.736 96.591-103.735 268.722 0 365.312 29.802 27.75 66.643 47.443 105.747 58.312 30.245 8.407 62.901 10.44 93.998 6.71C403.402 483.216 496.6 376.829 499.059 251.838 501.744 115.372 373.29-16.721 232.752 1.732m-67.887 107.442c11.008.613 19.631 15.8 25.023 23.861 9.99 14.933 24.646 29.08 23.21 48.305-1.278 17.111-23.91 24.96-14.29 44.387 1.86 3.758 4.487 7.213 7.135 10.445 13.804 16.84 30.987 31.618 46.392 46.998 8.161 8.148 18.097 18.865 30.027 20.902 13.94 2.38 21.084-11.746 32.638-16.022 15.806-5.848 31.1 7.695 43.083 15.795 10.673 7.214 28.675 15.83 32.973 28.935 6.784 20.688-23.857 42.47-40.807 44.165-23.68 2.368-49.796-8.712-70.498-19.037-56.888-28.375-111.71-84.187-139.354-141.32-14.838-30.667-31.283-77.383 4.885-99.716 5.235-3.232 13.19-8.054 19.583-7.698z" style="fill:#fff;fill-opacity:1;stroke:none;stroke-width:1.30552"/></svg>