<svg xmlns="http://www.w3.org/2000/svg" width="500" height="500"><path d="M35.48 2.107C-11.063 8.789 1.56 69.443 1.56 103.433v342.174c0 12.588-.948 26.128 6.773 36.91 11.104 15.507 27.798 15.962 45.102 15.962h373.099c14.11 0 28.98 1.357 42.896-1.308 12.422-2.378 23.625-12.355 27.008-24.63 6.672-24.203 1.922-54.813 1.922-79.807V53.555c0-13.254.826-26.86-7.88-37.87C480.003 2.438 464 1.68 448.48 1.68H74.387C61.68 1.68 48.063.3 35.48 2.107m69.83 68.705c53.897-7.77 69.455 76.342 14.965 84.197-14.53 2.094-29.355-1.767-39.44-12.84-22.033-24.189-8.886-66.547 24.476-71.357M424.54 424.657h-52.873c-4.693 0-15.523 2.006-19.35-1.025-2.67-2.114-1.6-7.973-1.6-10.946V303.95c0-15.543-.132-33.15-10.654-45.8-18.312-22.013-57.297-11.04-66.463 13.877-7.017 19.076-5.682 40.825-5.682 60.853v91.778h-72.824V188.23h51.875c4.077 0 15.13-1.935 17.928 1.599 4.267 5.387 1.026 23.517 1.026 30.323 7.648-9.923 14.853-19.641 25.937-26.06 39.244-22.732 102.036-14.627 121.844 30.05 11.974 27.01 10.836 56.937 10.836 85.794v114.722M149.205 188.23V408.696l-1.6 14.936-19.35 1.025H75.383V188.23Z" style="fill:#fff;fill-opacity:1;stroke:none;stroke-width:.997587"/></svg>