<svg xmlns="http://www.w3.org/2000/svg" width="500" height="500"><path d="M229.117.432C183.011 6.49 140.586 19.728 102.5 47.39c-26.12 18.97-48.018 42.956-65.265 70.19-14.648 23.13-24.632 48.837-31.075 75.368C1.145 213.597 0 234.109 0 255.25c0 146.476 136.774 261.308 280.367 243.904 36.753-4.456 73.448-16.965 104.51-37.24 121.13-79.071 152.99-247.276 65.188-363.429-16.14-21.352-35.9-40.36-58.154-55.268-23.349-15.643-49.014-28.173-76.372-35.046-27.5-6.908-58.04-11.468-86.422-7.74m15.074 29.003c21.142-2.495 46.035 2.544 66.323 8.334 94.179 26.875 158.426 113.258 160.77 210.447 2.606 108.054-83.976 209.182-191.922 220.912-52.458 5.7-105.063-4.609-149.73-33.694C38.3 375.961 2.495 251.824 51.498 153.756c12.17-24.355 28.004-46.616 47.987-65.229 41.682-38.825 89.873-52.622 144.706-59.092M87.426 138.682v244.191H412.01v-244.19H87.426m287.402 22.107c-6.35 9.013-15.52 16.063-23.022 24.118-20.833 22.363-42.785 43.699-64.404 65.318-8.536 8.536-21.708 28.028-34.167 29.931-14.408 2.203-26.254-15.975-35.172-24.906-20.564-20.598-40.696-41.702-61.299-62.304-9.713-9.713-23.79-19.903-30.147-32.157h248.21M110.54 177.873c7.677 5.409 13.47 13.47 20.098 20.098l41.201 41.201c4.37 4.37 18.885 14.6 18.885 21.103 0 6.503-14.515 16.733-18.885 21.103-14.23 14.23-27.96 28.964-42.206 43.21-6.061 6.062-12.466 15.23-20.098 19.094V227.114c0-13.845-4.327-36.534 1.005-49.24m279.362 2.01v163.798c-7.281-3.687-13.313-12.308-19.093-18.088-14.25-14.25-27.965-28.97-42.206-43.211-4.37-4.37-18.885-14.6-18.885-21.103 0-6.503 14.515-16.732 18.885-21.103 13.916-13.916 27.287-28.29 41.201-42.206 6.081-6.08 12.236-14.42 20.098-18.088m-98.48 97.476h1.005c18.267 18.267 36.013 37.017 54.265 55.27 8.328 8.328 21.123 17.405 26.127 28.136h-246.2c4.004-8.587 13.451-15.461 20.097-22.108 13.582-13.58 26.624-27.628 40.196-41.2 4.37-4.37 14.6-18.886 21.103-18.886 7.055 0 16.069 14.668 22.108 18.415 25.094 15.574 44.003-2.331 61.3-19.627z" style="fill:#fff;fill-opacity:1;stroke:none;stroke-width:1.0049"/></svg>