<svg xmlns="http://www.w3.org/2000/svg" width="500" height="500"><path d="M187.776 435.218c-25.964.535-56.633 6.267-75.939-16.625-7.689-9.116-10.619-21.27-16.991-31.28-6.453-10.137-14.875-15.031-23.23-23.065-2.576-2.476-6.458-7.185-1.977-9.865 11.322-6.774 29.458 6.02 36.99 13.39 8.028 7.857 12.394 18.52 20.62 26.09 13.522 12.444 44.215 18.73 60.024 5.939 3.546-2.869 3.622-10.318 5.096-14.445 2.671-7.471 7.632-13.12 12.027-19.553-32.36-1.39-68.572-14.564-89.49-40.084-21.694-26.466-27.797-67.647-22.81-100.7 1.679-11.12 5.76-22.697 11.665-32.262 3.19-5.169 10.617-11.684 11.742-17.598.935-4.923-2.927-11.658-3.695-16.62-1.9-12.277-2.357-38.636 7.24-48.332 4.463-4.507 14.693-1.142 19.845.451 11.057 3.423 22.095 8.453 32.263 13.965 5.13 2.78 10.784 8.25 16.62 9.165 8.335 1.305 19.968-3.781 28.352-5.128 15.593-2.504 32.128-3.377 47.905-2.296 11.14.763 22.284 2.46 33.24 4.609 5.066.993 11.466 3.967 16.62 2.611 20.777-5.465 37.98-27.263 61.592-25.61 6.782.474 8.412 6.937 10.05 12.436 3.839 12.879 5.721 26.835 2.987 40.084-.992 4.811-4.982 11.937-2.617 16.62 8.115 16.063 18.868 27.373 22.372 45.95 6.294 33.376-.8 77.336-23.307 103.632-21.077 24.625-56.785 37.738-88.674 39.107 4.082 6.176 8.992 11.548 11.667 18.575 8.27 21.712 4.953 47.613 4.953 70.392 0 9.777-4.192 31.48 5.885 37.163 9.791 5.52 26.174-4.48 35.177-8.397 33.907-14.75 64.881-38.199 88.18-66.895 73.415-90.42 78.832-223.113 5.396-315.784C352.24-19.423 163.582-26.71 61.941 90.104 24.261 133.409 6.233 184.388.877 240.664c-3.004 31.573 1.864 65.832 12.235 95.81 19.722 57.011 60.238 107.258 113.071 136.735 12.578 7.018 25.566 12.877 39.107 17.78 5.952 2.156 13.762 4.392 19.032-.604 5.061-4.798 3.961-11.855 3.542-18.016-.836-12.276-.088-24.847-.088-37.151z" style="fill:ivory;fill-opacity:1;stroke:none;stroke-width:.977659"/></svg>