<svg xmlns="http://www.w3.org/2000/svg" width="150" height="150" fill="none"><path fill="#8257E6" d="M136.515 133.894 150 0H0l.176 1.737 13.288 132.175.113 1.1L74.433 150h.958l60.997-15 .113-1.1zM75.13 29.244h43.585l-1.31 13.5-43 16.95.718 3.05h40.35l-4.646 47.194-35.852 8.812-35.838-8.8-2.256-22.6h14.754l1.185 11.456.112 1.113 21.747 5.125h.938l21.507-5.3.106-1.107 2.03-21.162.162-1.725H35.648l-1.34-13.581 44.474-16.881-.705-3.063H32.398l-1.304-13H75.08z" style="fill:#ff521b;fill-opacity:1;stroke-width:2.4835"/></svg>