<svg xmlns="http://www.w3.org/2000/svg" width="266.667" height="266.667"><path d="M48.8 234.266c-.367-.592-.118-6.742.551-13.666 2.06-21.297 2.758-19.54-8-20.148-12.332-.696-16.55-3.65-17.106-11.975-.656-9.845 10.87-52.484 23.26-86.043 2.952-7.994 6.176-10.424 13.83-10.424 4.562 0 7.588.867 10.474 3 3.666 2.71 5.575 3 19.778 3.01 18.86.012 31.223 1.832 37.885 5.576l4.926 2.768 3.972-2.828c5.114-3.641 17.853-5.466 38.392-5.5 16.03-.026 35.779 1.932 41.585 4.124 4.262 1.609 7.565 10.032 14.318 36.517 7.084 27.78 10.269 44.445 9.723 50.866-.612 7.195-5.434 10.249-17.24 10.916l-9.409.532.948 13.51c.522 7.43 1.025 15.009 1.118 16.842l.17 3.334H136.64l.12-4c.065-2.2.521-9.47 1.014-16.157l.895-12.157-4.945-.802c-2.719-.441-5.202-.544-5.518-.229-.315.316.028 7.647.764 16.293.735 8.645 1.076 16.168.758 16.718-.785 1.357-80.09 1.281-80.93-.077zm73.813-10.59c-.015-2.75-.903-15.5-1.972-28.333-1.07-12.833-1.957-24.074-1.972-24.98-.02-1.168-2.065-.84-7.028 1.125-5.095 2.017-9.05 2.626-14.536 2.238-12.722-.901-15.052-3.586-31.317-36.087l-14.095-28.167-1.939 4.602c-3.87 9.186-15.38 51.022-18.424 66.965-1.655 8.67-1.612 9.107 1.09 11 2.918 2.043 15.06 2.695 17.707.95.847-.558 2.2-9.577 3.145-20.98 1.64-19.755 2.887-23.718 6.37-20.235 1.335 1.334 1.138 8.177-.989 34.285-1.461 17.94-2.662 34.868-2.668 37.618l-.01 5h66.666zm88.028.708c0-2.362-1.241-19.55-2.758-38.199-2.268-27.88-2.446-34.098-1-34.992 3.555-2.198 4.936 2.375 6.485 21.484.919 11.331 2.197 19.738 3.087 20.312 3.065 1.977 15.137 1.095 17.962-1.312 2.651-2.26 2.678-2.674.83-12.97-2.692-15.011-12.268-53.185-15.712-62.642-2.692-7.39-3.267-8.037-8.227-9.263-7.65-1.89-61.817-1.769-66 .148-1.834.84-12.823 9.038-24.42 18.218-11.599 9.18-21.799 16.416-22.667 16.08-.87-.337-8.044-9.844-15.944-21.128-7.9-11.283-15.3-20.874-16.443-21.313-3.45-1.324-8.116-.9-9.566.87-1.95 2.378 28.333 61.909 33.322 65.505 6.137 4.423 13.01 3.291 34.614-5.698 19.813-8.245 22.994-9.143 24.387-6.888.426.689-.438 15.839-1.919 33.667-1.481 17.827-2.694 34.664-2.695 37.414l-.002 5h66.666zm-69.837-47.04c.823-9.534 1.351-17.506 1.174-17.716-.479-.566-14.483 5.056-15.805 6.345-.624.608-.699 6.912-.167 14.01 1.049 13.98 2.143 15.625 9.968 14.972 3.285-.274 3.355-.529 4.83-17.612zm-26.473-55.412c7.504-5.91 13.643-11.04 13.643-11.401 0-.362-2.25-1.623-5-2.803-6.922-2.972-43.927-4.335-42.28-1.558 2.872 4.84 18.614 26.507 19.26 26.507.403 0 6.873-4.835 14.377-10.745zM88.64 91.48C71.07 86.984 61.042 70.112 65.936 53.278c3.943-13.563 15.001-21.935 28.974-21.935 26.217 0 40.083 30.25 23.099 50.392-6.636 7.87-19.723 12.212-29.368 9.744zm18.07-8.84c10.865-5.617 15.346-22.265 8.957-33.269-4.625-7.963-11.779-11.571-21.867-11.028-6.45.348-9.191 1.217-13.001 4.123-11.555 8.813-12.921 24.36-3.079 35.041 7.506 8.144 19.173 10.21 28.99 5.134zm61.559 8.078c-8.287-2.588-14.21-7.676-18.158-15.598-5.78-11.6-4.189-24.014 4.284-33.412 6.332-7.023 13.63-10.305 22.912-10.305 9.424 0 16.852 3.397 22.916 10.483 14.785 17.273 6.54 43.382-15.583 49.34-6.683 1.8-9.233 1.72-16.371-.508zm15.839-6.27c6.933-2.391 11.605-6.391 14.536-12.445 3.299-6.815 3.343-13.057.143-19.992-4.436-9.61-11.429-14-22.3-14-17.44 0-28.217 18.087-20.4 34.236 5.277 10.899 16.998 16.002 28.02 12.2z" style="fill:#000"/></svg>