<svg xmlns="http://www.w3.org/2000/svg" width="150" height="150"><g style="fill:#ff521b;fill-opacity:1"><path d="M190.41 390.516c-17.404-3.787-32.184-17.332-37.425-34.3-2.671-8.648-2.68-21.756-.02-30.36 4.693-15.19 16.24-26.976 31.725-32.387 3.53-1.233 6.65-2.476 6.937-2.763.287-.287-1.875-1.22-4.803-2.073-6.193-1.805-15.86-7.384-20.705-11.948-5.129-4.83-10.918-14.294-13.134-21.468-2.476-8.017-2.657-21.563-.392-29.286 4.543-15.484 16.615-28.031 32.237-33.505l6.33-2.218-3.83-1.225c-17.26-5.522-30.715-19.051-35.718-35.915-2.297-7.74-2.114-21.23.397-29.363 5.02-16.253 19.273-29.768 36.122-34.252 8.126-2.163 116.55-2.088 125.776.087 22.75 5.362 39.121 26.275 39.081 49.92-.036 21.721-13.776 40.767-34.678 48.071-3.53 1.233-6.638 2.464-6.91 2.735-.271.272 1.187.81 3.242 1.195 5.223.98 14.984 6.07 20.561 10.723 22.518 18.786 22.628 55.8.225 75.713-25.175 22.377-64.277 14.033-79.246-16.91l-4.105-8.487-.085 19c-.047 10.45-.048 30.25-.001 44 .046 13.75-.392 28.375-.974 32.5-2.952 20.915-19.06 38.147-39.76 42.533-8.17 1.732-12.826 1.728-20.846-.017zm64.94-169.285c4.458-11.537 13.275-20.701 25.625-26.635l8.525-4.096-17.465-.275c-9.606-.15-18.043-.052-18.75.22-.982.376-1.285 4.795-1.285 18.724 0 10.081.38 17.806.85 17.281.467-.522 1.592-2.871 2.5-5.22z" style="fill:#ff521b;fill-opacity:1" transform="matrix(.49349 0 0 .49349 -49.11 -43.362)"/><path d="M190.41 390.516c-17.404-3.787-32.184-17.332-37.425-34.3-2.671-8.648-2.68-21.756-.02-30.36 4.693-15.19 16.24-26.976 31.725-32.387 3.53-1.233 6.65-2.476 6.937-2.763.287-.287-1.875-1.22-4.803-2.073-6.193-1.805-15.86-7.384-20.705-11.948-5.129-4.83-10.918-14.294-13.134-21.468-2.476-8.017-2.657-21.563-.392-29.286 4.95-16.872 20.081-31.121 37.258-35.086l5.195-1.2-7.328-2.113c-22.425-6.468-36.67-25.328-36.706-48.6-.038-23.873 17.832-45.189 41.223-49.173 4.394-.749 23.589-.782 64.265-.11 56.583.935 58.131 1.013 63.364 3.185 13.424 5.573 24.194 16.575 28.685 29.306 9.956 28.218-6.547 58.462-35.642 65.32-4.88 1.15-12.884 1.514-33.598 1.525-14.955.008-27.33.352-27.5.765-.17.412-.084 9.075.191 19.25.44 16.261.656 18.137 1.79 15.5 6.64-15.439 14.014-23.576 27.034-29.831 7.83-3.762 9.552-4.204 17.654-4.527 10.608-.423 17.816.992 26.022 5.109 31.828 15.966 37.52 59.01 10.928 82.646-25.175 22.377-64.277 14.033-79.246-16.91l-4.105-8.487-.085 19c-.047 10.45-.048 30.25-.001 44 .046 13.75-.392 28.375-.974 32.5-2.952 20.915-19.06 38.147-39.76 42.533-8.17 1.732-12.826 1.728-20.846-.017z" style="fill:#ff521b;fill-opacity:1" transform="matrix(.49349 0 0 .49349 -49.11 -43.362)"/><path d="M190.41 390.516c-17.404-3.787-32.184-17.332-37.425-34.3-2.671-8.648-2.68-21.756-.02-30.36 4.765-15.421 16.129-26.876 32.433-32.694 6.824-2.435 8.208-2.55 35.365-2.96 21.475-.324 28.62-.13 29.75.808 1.244 1.033 1.484 5.266 1.467 25.862-.01 13.546-.47 27.778-1.02 31.628-2.92 20.415-19.244 37.698-39.703 42.033-8.17 1.732-12.826 1.728-20.846-.017zM293 289.881c-14.686-2.365-29.583-13.937-36.535-28.381-3.605-7.49-3.877-8.702-4.264-19-.353-9.391-.093-11.945 1.775-17.462 4.778-14.11 13.338-23.881 26.418-30.158 7.104-3.409 9.344-3.982 17.702-4.531 11.114-.73 17.44.449 26.404 4.919 17.541 8.749 27.667 25.12 27.667 44.732 0 24.914-17.89 46.11-42.167 49.955-7.39 1.171-9.318 1.163-17-.074zM187.945 187.72c-9.85-3.001-16.181-6.777-22.945-13.681-9.236-9.429-13.966-21.3-13.988-35.108-.038-23.873 17.832-45.189 41.223-49.173 4.394-.749 23.589-.782 64.265-.11 56.583.935 58.131 1.013 63.364 3.185 13.424 5.573 24.194 16.575 28.685 29.306 9.957 28.22-6.716 58.741-35.652 65.262-4.953 1.116-18.924 1.575-61.897 2.031l-55.5.59z" style="fill:#ff521b;fill-opacity:1" transform="matrix(.49349 0 0 .49349 -49.11 -43.362)"/><path d="M190.41 390.516c-17.404-3.787-32.184-17.332-37.425-34.3-2.671-8.648-2.68-21.756-.02-30.36 4.765-15.421 16.129-26.876 32.433-32.694 6.824-2.435 8.208-2.55 35.365-2.96 21.475-.324 28.62-.13 29.75.808 1.244 1.033 1.484 5.266 1.467 25.862-.01 13.546-.47 27.778-1.02 31.628-2.92 20.415-19.244 37.698-39.703 42.033-8.17 1.732-12.826 1.728-20.846-.017zM293 289.881c-14.686-2.365-29.583-13.937-36.535-28.381-3.605-7.49-3.877-8.702-4.264-19-.353-9.391-.093-11.945 1.775-17.462 4.778-14.11 13.338-23.881 26.418-30.158 7.104-3.409 9.344-3.982 17.702-4.531 11.114-.73 17.44.449 26.404 4.919 17.541 8.749 27.667 25.12 27.667 44.732 0 24.914-17.89 46.11-42.167 49.955-7.39 1.171-9.318 1.163-17-.074zM191.345 188.11c-10.376-2.574-17.996-6.75-25.085-13.746-26.538-26.191-16.147-70.224 19.474-82.527L192.5 89.5l54 .265c29.7.146 57.375.716 61.5 1.267 32.779 4.379 51.67 38.479 38.01 68.607-5.224 11.52-17.858 22.46-30.51 26.418-4.079 1.276-39.692 2.614-91 3.42-22.471.352-26.971.167-33.155-1.367z" style="fill:#ff521b;fill-opacity:1" transform="matrix(.49349 0 0 .49349 -49.11 -43.362)"/><path d="M184.887 388.623c-29.663-10.47-42.587-43.891-27.743-71.74 6.307-11.835 20.608-22.37 33.747-24.862 2.96-.562 17.696-1.021 32.745-1.021H251l-.025 28.75c-.013 16.181-.477 30.717-1.06 33.25-3.753 16.294-17.501 31.012-33.62 35.99-9.358 2.89-22.62 2.736-31.408-.367zm6.458-200.513c-10.376-2.574-17.996-6.75-25.085-13.746-26.538-26.191-16.147-70.224 19.474-82.527L192.5 89.5l54 .265c29.7.146 57.375.716 61.5 1.267 32.779 4.379 51.67 38.479 38.01 68.607-5.224 11.52-17.858 22.46-30.51 26.418-4.079 1.276-39.692 2.614-91 3.42-22.471.352-26.971.167-33.155-1.367z" style="fill:#ff521b;fill-opacity:1" transform="matrix(.49349 0 0 .49349 -49.11 -43.362)"/><path d="M184.887 388.623c-29.663-10.47-42.587-43.891-27.743-71.74 6.307-11.835 20.608-22.37 33.747-24.862 2.96-.562 17.696-1.021 32.745-1.021H251l-.025 28.75c-.013 16.181-.477 30.717-1.06 33.25-3.753 16.294-17.501 31.012-33.62 35.99-9.358 2.89-22.62 2.736-31.408-.367zm8.234-201.14c-20.027-3.626-35.97-18.878-40.016-38.282-4.535-21.75 6.569-44.45 26.33-53.828 10.31-4.893 15.09-5.437 45.131-5.14l26.934.267.262 48c.242 44.237.129 48.098-1.441 49.25-2.406 1.766-47.128 1.557-57.2-.267z" style="fill:#ff521b;fill-opacity:1" transform="matrix(.49349 0 0 .49349 -49.11 -43.362)"/><path d="M184.887 388.623c-29.663-10.47-42.587-43.891-27.743-71.74 6.307-11.835 20.608-22.37 33.747-24.862 2.96-.562 17.696-1.021 32.745-1.021H251l-.025 28.75c-.013 16.181-.477 30.717-1.06 33.25-3.753 16.294-17.501 31.012-33.62 35.99-9.358 2.89-22.62 2.736-31.408-.367z" style="fill:#ff521b;fill-opacity:1" transform="matrix(.49349 0 0 .49349 -49.11 -43.362)"/></g></svg>