<svg xmlns="http://www.w3.org/2000/svg" width="199.97" height="177.841"><path d="M190.5 284.958c-17.494-8.5-35.691-11.97-66.5-12.686-15.02-.35-22.744-.897-23.235-1.648-.404-.618-.741-31.297-.75-68.174-.011-50.834.275-67.34 1.185-68.25.66-.66 3.781-1.2 6.937-1.2h5.736l.314-3.25.313-3.25 6.75-.296 6.75-.295v-5.52c0-3.036.497-6.448 1.103-7.582.995-1.859 1.714-2 7.295-1.428 23.065 2.363 49.155 16.9 60.15 33.513 1.494 2.26 3.048 4.108 3.452 4.108.404 0 1.958-1.849 3.453-4.108 10.994-16.613 37.084-31.15 60.149-33.513 5.581-.572 6.3-.43 7.295 1.428.606 1.134 1.103 4.546 1.103 7.582v5.52l6.75.295 6.75.296.313 3.25.314 3.25h5.736c3.156 0 6.277.54 6.937 1.2.91.91 1.196 17.416 1.185 68.25-.008 36.877-.346 67.556-.75 68.174-.49.751-8.215 1.299-23.235 1.648-30.828.716-48.66 4.12-66.846 12.762-4.59 2.181-8.865 3.931-9.5 3.888-.635-.043-4.754-1.827-9.154-3.964zm-25.263-17.548c-9.32-4.074-33.69-9.41-42.979-9.41-2.414 0-5.26-.466-6.324-1.035-1.878-1.005-1.934-2.709-1.934-58.387v-57.351l-3-.44-3-.44V264l10.25.003c11.771.004 29.709 1.539 40.105 3.432 9.378 1.707 10.832 1.702 6.882-.025zm82.063-.955c5.61-.815 17.962-1.77 27.45-2.124l17.25-.642V140.346l-3 .44-3 .441v57.351c0 55.678-.056 57.382-1.934 58.387-1.064.57-3.877 1.037-6.25 1.039-9.834.009-34.18 5.378-43.053 9.493-3.09 1.434-3.115 1.485-.463.977 1.54-.296 7.39-1.204 13-2.019zm-64.296-.95c-2.742-3.304-13.838-10.953-20.504-14.133-7.792-3.718-20.896-7.372-26.437-7.372-1.99 0-4.618-.7-5.84-1.557L128 240.887V132.873l-3.25.314-3.25.313-.258 58.188-.258 58.187 4.758.602c20.425 2.584 39.213 7.667 51.258 13.868 6.778 3.49 8.159 3.756 6.004 1.16zm12.987-52.255-.01-54.75-2.879-5c-8.684-15.079-26.072-27.13-46.77-32.415-4.49-1.147-8.653-2.085-9.249-2.085-.765 0-1.083 17.16-1.083 58.481v58.48l2.25.43c24.659 4.709 40.542 12.831 52.25 26.72 2.2 2.61 4.338 4.777 4.75 4.817.412.04.746-24.566.74-54.678zm13.509 49.86c11.708-13.888 27.591-22.01 52.25-26.718l2.25-.43V118.777l-3.75.675c-22.979 4.131-43.761 17.394-53.352 34.048l-2.88 5-.008 54.75c-.005 30.113.328 54.718.74 54.678.413-.04 2.55-2.208 4.75-4.817zm32.063-5.99c9.105-2.797 20.504-5.115 32.695-6.647l4.758-.598-.258-58.187-.258-58.188-3.25-.313-3.25-.314v108.014l-2.223 1.556c-1.222.856-3.85 1.557-5.84 1.557-6.008 0-18.953 3.749-27.437 7.946-7.722 3.82-20.5 13.198-20.5 15.045 0 .495 3.516-.836 7.813-2.958 4.297-2.122 12.285-5.233 17.75-6.912z" style="fill:#000" transform="translate(-100.015 -111.082)"/></svg>