<svg xmlns="http://www.w3.org/2000/svg" width="14.931" height="14.931"><path d="M3.706 14.911a2.45 2.45 0 0 1-1.876-1.21c-.233-.41-.285-.62-.307-1.248-.01-.297-.012-2.77-.004-5.497l.015-4.958.066-.213c.255-.83.853-1.418 1.718-1.69l.256-.08L8.437.007 13.3 0v10.676l-.13.13c-.666.666-.869 1.63-.532 2.525.14.369.383.786.679 1.159.121.153.132.285.032.379l-.067.063-4.737-.004a590.95 590.95 0 0 1-4.84-.016zm8.151-1.16c-.23-.458-.312-.745-.33-1.171-.023-.573.118-1.08.416-1.498.051-.072.103-.148.115-.169.018-.03-.712-.036-3.896-.028-3.703.008-3.926.011-4.077.062-.448.149-.812.453-.997.835-.315.65-.2 1.348.308 1.855.227.226.525.393.79.444.087.016 1.714.029 4 .03l3.855.004zm-.89-11.3v-.876H5.718v1.75H10.967Z" style="fill:#000"/></svg>