<svg xmlns="http://www.w3.org/2000/svg" width="266.667" height="266.667"><path d="M36.082 237.564c-2.498-1.34-5.639-4.481-6.979-6.98-2.293-4.274-2.436-10.01-2.436-97.25 0-87.241.143-92.977 2.436-97.252 4.957-9.242 6.02-9.415 57.876-9.415h46.354V43.965L89 44.314l-44.333.352V222H222l.351-44.333.352-44.334H240v46.354c0 51.856-.173 52.92-9.416 57.877-4.274 2.292-10.01 2.436-97.25 2.436-87.241 0-92.977-.144-97.252-2.436zM139.65 127.018l-6.325-6.325 38.33-38.347L209.983 44h-40.65V26.667H202c30.889 0 32.812.145 35.333 2.666 2.522 2.522 2.667 4.445 2.667 35.334v32.666h-17.333V56.684l-38.347 38.33-38.346 38.328z" style="fill:#000"/></svg>