<svg xmlns="http://www.w3.org/2000/svg" width="150" height="150"><path d="M88.99 0c3.682 18.989-14.368 28.402-26.134 39.652-8.004 7.653-12.837 17.429-6.62 27.883 1.568 2.638 3.55 4.908 5.74 7.043 3.02 2.947 6.741 5.828 10.57 7.639-6.072-8.722-16-18.333-9.84-29.95 7.077-13.346 23.597-19.088 28.631-34.062C93.093 12.985 93.743 3.94 88.99 0m13.507 30.831.294.294-.294-.294m-22.022 55.79c1.905-.495 3.536-2.061 4.98-3.355 1.276-1.143 2.404-2.547 3.33-3.985 6.228-9.676-5.78-16.38-5.662-25.84.127-10.02 11.166-17.81 19.08-22.022-3.222-.677-9.308 3.4-12.038 4.995-3.027 1.767-5.998 3.708-8.515 6.167-1.716 1.676-3.248 3.486-4.442 5.575-3.042 5.316-3.073 11.351-.221 16.737 2.35 4.439 6.156 8.53 6.394 13.8.139 3.071-1.805 5.276-2.906 7.928m31.419-4.404c1.844 0 3.556-.022 5.285.725 7.097 3.063 5.87 11.556 1.903 16.6-2.222 2.825-5.11 5.12-8.07 7.121-1.659 1.122-3.683 1.911-4.991 3.45 2.538-.117 5.034-1.273 7.34-2.267 7.529-3.247 19.445-10.703 15.07-20.637-1.989-4.517-7.106-6.649-11.84-6.449-1.493.063-3.79.157-4.697 1.457m-4.111 9.396c-3.51-4.098-8.982-1.652-13.507-.904-12.341 2.04-25.185 2.017-37.585.625-3.056-.343-6.154-.8-9.103-1.694-.963-.292-2.532-.732-2.835-1.856-.375-1.393 1.869-2.24 2.835-2.612 3.408-1.31 7-1.969 10.571-2.661-1.688-.709-4.1-.085-5.873.17-4.371.627-8.73 1.334-12.92 2.767-1.625.556-5.595 1.971-4.391 4.39.743 1.495 2.947 2.153 4.391 2.712 4.183 1.619 8.793 2.304 13.214 2.919 18.098 2.516 37.749 1.823 55.203-3.856m-6.46 15.563c-1.523-1.005-3.458-2.496-5.285-2.81-3.416-.588-8.529 1.424-12.04 1.845-7.12.855-14.604 1.092-21.728.167-3.501-.455-14.102-.972-10.571-6.25-2.833.226-5.994.955-8.515 2.298-1.198.639-2.483 1.8-1.753 3.277 1.878 3.8 10.107 4.594 13.792 5.165 11.161 1.731 22.616 1.726 33.767-.096 3.813-.624 9.262-1.062 12.333-3.596m-6.46 17.03v-.293c-2.029-1.08-4.454-3.262-6.754-3.586-2.372-.335-5.507.945-7.928 1.187-5.096.51-10.17.39-15.269.042-2.753-.188-9.236-.523-8.808-4.397-2.406.197-10.861 2.233-7.542 6.112 2.5 2.922 8.088 3.599 11.652 4.189 11.535 1.91 23.796 1.199 34.649-3.254m22.61 3.23c-4.057 5.627-12.015 7.164-18.5 8.246-15.508 2.587-31.113 2.621-46.687.872-5.318-.598-10.825-1.68-15.856-3.525-1.69-.62-4.432-1.527-4.892-3.538-1.07-4.68 8.03-5.892 10.471-7.634-4.917-.828-13.096 2.248-17.324 4.661-1.859 1.061-4.493 2.815-3.99 5.323.946 4.725 10.127 6.166 13.973 6.985 21.185 4.512 43.881 4.517 65.187.92 5.465-.924 11.762-2.171 16.443-5.293 2.635-1.758 4.127-4.817 1.175-7.017m7.634 7.341c-7.542 6.08-16.99 8.816-26.427 10.399-13.298 2.23-26.786 2.804-40.227 2.216-4.307-.189-8.637-.695-12.92-1.209-2.022-.243-4.137-.864-6.167-.541v.293c21.93 5.027 44.622 5.561 66.655.648 5.487-1.223 11.254-3.032 15.856-6.352 1.566-1.13 4.065-3.29 3.23-5.454z" style="fill:#ff521b;stroke:none;stroke-width:.293632;fill-opacity:1"/></svg>