<svg xmlns="http://www.w3.org/2000/svg" width="150" height="150" fill="none"><path fill="#8257E6" fill-rule="evenodd" d="M0 0h150v150H0Zm114.669 125.75c-6.957 0-10.888-3.625-13.907-8.563l-11.456 6.657c4.138 8.175 12.594 14.412 25.688 14.412 13.387 0 23.356-6.95 23.356-19.643 0-11.77-6.763-17-18.738-22.144l-3.525-1.507c-6.05-2.625-8.668-4.33-8.668-8.562 0-3.419 2.625-6.038 6.75-6.038 4.043 0 6.65 1.707 9.068 6.038l10.975-7.044c-4.643-8.169-11.08-11.287-20.043-11.287-12.588 0-20.644 8.05-20.644 18.625 0 11.469 6.75 16.9 16.925 21.231l3.525 1.512c6.431 2.813 10.262 4.525 10.262 9.357 0 4.037-3.73 6.956-9.568 6.956zm-54.625-.094c-4.844 0-6.863-3.312-9.075-7.25l-11.475 6.95c3.325 7.038 9.862 12.875 21.143 12.875 12.494 0 21.05-6.644 21.05-21.237V68.869H67.594v47.937c0 7.044-2.925 8.85-7.557 8.85z" clip-rule="evenodd" style="fill:#ff521b;fill-opacity:1;stroke-width:2.30769"/></svg>