<svg xmlns="http://www.w3.org/2000/svg" width="512" height="512"><path d="M506.21 502.597c-12.963-11.84-29.607-22.57-50.598-32.62-16.558-7.926-23.053-11.852-36.686-22.172-12.685-9.603-20.613-19-26.03-30.855-2.874-6.29-2.9-6.491-1.08-8.31 2.325-2.326 22.686-9.32 34.687-11.916 6.1-1.319 14.883-2.134 27.25-2.529 10.038-.32 18.25-.975 18.25-1.456 0-2.19-7.638-8.641-20.5-17.312-7.7-5.19-19.803-13.364-26.897-18.162-13.789-9.328-23.6-13.674-50.2-22.24-7.11-2.289-14.371-5.04-16.135-6.113-6.7-4.074-13.99-16.5-29.343-50.016-6.425-14.025-13.809-30-16.409-35.5-2.6-5.5-7.392-16.525-10.65-24.5-9.182-22.477-20.832-42.143-38.57-65.108-10.909-14.123-35.337-38.865-49.296-49.929-31.933-25.31-69.009-44.122-89.663-45.495-9.476-.63-28.011-2.443-30.991-3.032-1.185-.235-5.402-3.079-9.37-6.321-9.318-7.614-19.04-13.128-35.335-20.04-11.877-5.039-13.835-5.575-20.363-5.575-9.006 0-11.31 1.782-12.033 9.307-.648 6.742 3.197 14.412 14.4 28.726 20.562 26.27 25.93 36.524 36.366 69.467 8.978 28.342 16.413 43.207 27.535 55.049 10.21 10.871 10.375 13.514 2.265 36.451-5.765 16.306-8.386 28.66-9.334 44-1.997 32.308 9.134 72.258 22.62 81.182 6.654 4.404 7.129 3.731 9.02-12.767 2.523-22.016 4.717-31.545 9.418-40.915 2.424-4.833 14.129-20 15.434-20 .434 0 1.233 1.237 1.776 2.75 16.156 44.995 48.404 99.61 73.517 124.51 4.983 4.94 7.976 8.41 6.65 7.71-1.326-.7-6.012-4.726-10.412-8.946-4.4-4.22-11.375-10.393-15.5-13.719-23.666-19.076-34.992-32.59-46.642-55.646-4.68-9.263-8.746-16.603-9.037-16.313-.702.703-2.75 11.589-4.8 25.51-.913 6.21-2.324 13.169-3.133 15.464-2.123 6.015-6.888 10.479-13.123 12.291-4.744 1.38-5.797 1.376-10.65-.035-17.16-4.988-33.195-32.69-38.217-66.02-1.792-11.891-1.99-34.9-.4-46.612 1.22-8.989 10.241-45.653 12.078-49.085 1.535-2.868.445-6.204-3.112-9.521-4.436-4.137-12.454-17.016-18.51-29.735-5.502-11.553-15.974-39.742-19.482-52.442-3.018-10.924-5.61-15.31-21.521-36.408C4.158 52.06-1.266 40.642.583 29.498c2.363-14.25 12.27-23.23 26.81-24.301C44.601 3.929 74.098 15.79 94.976 32.374l7.952 6.316 12.788.635c14.169.704 35.653 5.258 47.935 10.161 7.623 3.043 22.75 11.797 37.706 21.821 41.413 27.757 70.97 57.409 97.99 98.305 11.109 16.814 14.813 23.573 19.729 35.996 9.412 23.787 41.3 91.731 48.096 102.482 3.273 5.177 1.852 4.38 29.293 16.423 23.861 10.472 42.947 22.934 72.316 47.216 10.029 8.291 25.222 25.56 25.222 28.665 0 .936-2.88 2.295-8.25 3.894-10.058 2.994-11.306 3.242-25.75 5.116-6.325.82-18.117 3.154-26.206 5.184l-14.706 3.692 2.206 3.925c2.887 5.136 10.297 10.918 26.001 20.29 19.698 11.754 25.997 17.281 51.317 45.031 6.868 7.527 14.732 19.37 12.862 19.37-.307 0-2.677-1.935-5.266-4.3zM118.033 115.219c-1.91-4.184-6.081-10.723-9.27-14.53-3.188-3.807-5.564-7.298-5.28-7.759.285-.46 3.23-1.152 6.544-1.537 5.868-.68 6.139-.606 10.394 2.881 6.326 5.184 9.857 11.612 8.994 16.376-1.03 5.689-4.96 12.326-7.232 12.212-.373-.02-2.24-3.458-4.15-7.643z" style="fill:#000"/></svg>