<svg xmlns="http://www.w3.org/2000/svg" width="113.28" height="83.456"><path d="M34.74 99.152c-2.365-.057-4.319-.25-4.56-.45-.23-.191-.42-.947-.42-1.677 0-1.113.707-2.59 4.345-9.081 2.39-4.264 4.442-7.752 4.56-7.752.118 0 .178-14.05.132-31.222l-.083-31.221.938-.939.939-.938h93.402l.843.843.844.844v31.29c0 19.79.113 31.329.308 31.396.17.059 1.826 3.478 3.68 7.598 2.933 6.515 3.372 7.715 3.372 9.208 0 1.548-.08 1.747-.82 2.029-.745.283-96.162.347-107.48.072zm107.474-.594c.278-.107.506-.503.506-.88v-.686l-23.99.084c-23.57.082-23.998.095-24.332.72-.325.607-.684.636-7.88.636-7.269 0-7.544-.023-7.705-.64-.166-.633-.437-.64-24.29-.64-23.56 0-24.123.014-24.123.613 0 .337.18.686.4.775.576.232 110.808.25 111.414.018zm-48.227-1.086c.166-.633.437-.64 24.091-.64 20.218 0 23.982-.07 24.299-.452.298-.36-.294-1.953-2.883-7.76-1.793-4.02-3.401-7.488-3.576-7.708-.402-.508-10.158-.58-10.158-.075 0 .341-71.806.194-81.789-.168l-5.148-.187-4.212 7.506c-2.316 4.129-4.211 7.72-4.211 7.98 0 .262.228.563.506.67.279.106 11.188.194 24.243.194 23.39 0 23.743.01 24.137.64.38.608.746.64 7.467.64 6.798 0 7.073-.025 7.234-.64zm-23.791-2.08c-.23-.6.49-4.652.925-5.2.246-.31 3.798-.4 15.808-.4 17.767 0 15.915-.41 15.937 3.52l.014 2.4-16.249.083c-14.294.073-16.271.024-16.436-.404zm32.259-2.56-.106-2.4H86.876c-17.328 0-15.558-.266-15.985 2.4-.113.704-.28 1.532-.37 1.84-.155.528.753.56 15.937.56l16.102.001zm-39.954-3.6c-4.732-.094-4.862-.115-4.996-.808-.136-.7-.139-.7-.181.039l-.044.751-5.734-.111c-3.153-.061-5.845-.223-5.981-.36-.27-.27.078-1.387 1.542-4.952l.954-2.322 39.063.082 39.063.08 1.097 3.291c.603 1.81 1.015 3.502.916 3.76-.14.367-.842.47-3.206.47-2.614 0-3.047-.077-3.173-.56-.14-.534-.149-.534-.184 0-.032.483-.386.56-2.581.56-2.085 0-2.603-.101-2.87-.56-.311-.534-.327-.534-.336 0-.008.485-.348.56-2.547.56-2.146 0-2.559-.086-2.682-.56-.14-.534-.149-.534-.184 0-.032.486-.393.56-2.734.56-2.299 0-2.718-.083-2.842-.56-.137-.521-.15-.522-.184-.008-.034.515-1.166.552-16.893.562-9.27.006-16.925.08-17.01.165-.085.086-.336.006-.556-.177-.278-.231-.465-.23-.608.002-.114.185-.667.304-1.229.265-.561-.04-3.207-.115-5.88-.168zm-5.61-1.082c.072-.368-.238-.565-1.116-.71-1.35-.223-8.415-.285-8.415-.074 0 .073-.086.357-.19.63-.165.43.36.508 3.92.586 5.814.127 5.692.136 5.802-.432zm5.77-.038c.09-.474-.144-.56-1.518-.56-1.23 0-1.623-.117-1.623-.48 0-.374-.142-.338-.64.16-1.248 1.248-.862 1.639 1.517 1.534 1.754-.077 2.176-.199 2.263-.654zm6.779.586c0-.074.087-.362.194-.64.167-.434-.152-.506-2.24-.506-1.72 0-2.441-.117-2.46-.4-.02-.32-.057-.32-.186 0-.089.22-.365.4-.615.4-.249 0-.453.288-.453.64 0 .592.213.64 2.88.64 1.584 0 2.88-.06 2.88-.134zm27.956-.346c.197-.515-1.33-.613-7.556-.485-2.51.052-2.804-.003-2.837-.529-.034-.533-.05-.536-.183-.028-.132.505-.671.556-5.643.534-10.015-.044-10.457-.022-10.457.508 0 .419 1.685.48 13.246.48 11.479 0 13.27-.064 13.43-.48zm6.924-.023c0-.69-.864-1.546-1.036-1.028-.078.233-1.029.434-2.426.513-1.684.095-2.298.249-2.298.574 0 .346.637.444 2.88.444 2.405 0 2.88-.083 2.88-.503zm5.696-.202c.122-.635-.454-.769-2.697-.626-1.464.094-1.719.204-1.719.744 0 .581.181.625 2.158.519 1.68-.09 2.18-.231 2.258-.637zm5.504.225c0-.264.273-.48.606-.48.333 0 .688.216.79.48.257.67 4.044.695 4.044.026 0-.249.18-.525.4-.614.22-.089-1.22-.173-3.2-.187-2.639-.018-3.607-.132-3.625-.425-.02-.32-.058-.32-.187 0-.095.235-.743.4-1.575.4-1.2 0-1.413.096-1.413.64 0 .574.213.64 2.08.64 1.636 0 2.08-.103 2.08-.48zM46.924 87.6l.344-.911 5.6.154c3.763.103 5.67.042 5.812-.186.115-.186-.117-.44-.515-.565-.399-.125-.83-.387-.96-.583-.165-.251-.237-.238-.24.043-.004.301-1.147.4-4.635.4H47.7l.266-.72c.251-.68.466-.725 3.83-.81 2.02-.052 3.564-.225 3.564-.4 0-.17-.288-.31-.64-.31-.392 0-.644-.217-.65-.56-.01-.526-.037-.525-.447.016-.356.47-.814.558-2.47.48-1.998-.095-2.032-.111-1.973-.976.093-1.36-.713-1.071-1.342.48-1.69 4.166-2.061 5.36-1.665 5.36.224 0 .562-.41.75-.912zm80.102-2.014c-.5-1.61-1.07-3.085-1.264-3.28-.253-.254-11.1-.384-38.214-.46l-37.86-.106-.174.666c-.162.619-.041.666 1.716.666 1.04 0 1.89-.127 1.89-.283 0-.505 1.308-.656 1.494-.172.205.534 3.946.662 3.946.135 0-.176.288-.32.64-.32.365 0 .64.213.64.497 0 .402.37.483 1.95.426 1.277-.046 2.008-.218 2.115-.497.224-.585 1.375-.54 1.375.054 0 .372.423.48 1.886.48 1.38 0 1.935-.129 2.07-.48.101-.264.404-.48.674-.48s.49.216.49.48c0 .377.444.48 2.08.48 1.636 0 2.08-.103 2.08-.48 0-.267.284-.48.64-.48.356 0 .64.213.64.48 0 .372.423.48 1.886.48 1.38 0 1.935-.129 2.07-.48.101-.264.404-.48.674-.48s.49.216.49.48c0 .377.444.48 2.08.48 1.636 0 2.08-.103 2.08-.48 0-.267.284-.48.64-.48.356 0 .64.213.64.48 0 .377.444.48 2.08.48 1.636 0 2.08-.103 2.08-.48 0-.264.22-.48.49-.48s.573.216.674.48c.135.35.685.48 2.036.48 1.35 0 1.901-.13 2.036-.48.23-.602 1.164-.634 1.164-.04 0 .47 1.34.84 3.043.84.773 0 1.086-.165 1.21-.64.092-.352.338-.64.547-.64.209 0 .455.288.547.64.143.546.437.64 2.013.64 1.576 0 1.87-.094 2.013-.64.092-.352.397-.64.677-.64.297 0 .51.268.51.64 0 .574.213.64 2.08.64s2.08-.066 2.08-.64c0-.372.213-.64.51-.64.28 0 .585.288.677.64.145.554.437.64 2.173.64s2.028-.086 2.173-.64c.215-.825.867-.833.867-.01 0 .585.264.636 3.756.72 3.28.078 3.77.16 3.864.65.09.467-.135.56-1.357.56-1.087 0-1.463.123-1.463.48 0 .367.405.48 1.726.48 1.672 0 2.114.273 2.114 1.306 0 .162-.984.294-2.187.294-1.73 0-2.186.1-2.186.48 0 .39.523.48 2.794.48h2.794zM70.72 87.373c0-.274-.144-.41-.32-.301-.176.109-.32.333-.32.499 0 .165.144.3.32.3.176 0 .32-.224.32-.498zm-6.4-.621c0-.299-.302-.48-.8-.48-.44 0-.8-.173-.8-.384 0-.299-.085-.299-.384 0-.211.211-.787.384-1.28.384-.583 0-.896.167-.896.48 0 .377.444.48 2.08.48 1.636 0 2.08-.103 2.08-.48zm5.543.032c.2-.52-1.2-.768-3.247-.572-.946.09-1.246.243-1.12.571.243.632 4.125.633 4.367.001zm5.657-.012c0-.508-1.335-.73-3.28-.547-.759.072-1.2.278-1.2.56 0 .34.537.447 2.24.447 1.734 0 2.24-.104 2.24-.46zm5.44-.02c0-.381-.462-.48-2.24-.48-1.778 0-2.24.099-2.24.48 0 .38.462.48 2.24.48 1.778 0 2.24-.1 2.24-.48zm5.44.16c0-.176-.278-.32-.617-.32-.34 0-.844-.226-1.12-.503-.277-.277-.503-.349-.503-.16 0 .189-.504.343-1.12.343-.782 0-1.12.145-1.12.48 0 .38.462.48 2.24.48 1.28 0 2.24-.137 2.24-.32zm5.44.035c0-.35-1.97-.604-3.234-.419-1.698.25-.954.704 1.154.704 1.144 0 2.08-.128 2.08-.285zm5.44-.035c0-.176-.432-.32-.96-.32-.541 0-.971-.175-.985-.4-.02-.32-.058-.32-.187 0-.089.22-.581.4-1.095.4-.513 0-.933.144-.933.32 0 .18.907.32 2.08.32s2.08-.14 2.08-.32zm5.76.033c0-.33-1.916-.56-3.44-.413-1.935.187-1.055.7 1.2.7 1.232 0 2.24-.13 2.24-.287zm5.44-.033c0-.176-.35-.32-.777-.32-.428 0-.972-.195-1.21-.432-.362-.363-.496-.363-.835 0-.222.237-.694.432-1.05.432-.355 0-.557.144-.448.32.109.176 1.125.32 2.259.32 1.16 0 2.061-.14 2.061-.32zm5.28-.125c0-.26-1.083-.333-3.44-.233-.484.021-.88.188-.88.372 0 .21.81.3 2.16.24 1.188-.052 2.16-.222 2.16-.38zm12.32-.075c0-.323-.534-.45-2-.478-1.1-.02-2.117-.018-2.26.006-.142.025-1.762.05-3.6.058-2.947.012-3.69.16-3.205.64.074.074 2.594.152 5.6.174 4.445.033 5.465-.042 5.465-.4zm-53.344-1.19c.222-.576-.398-1.495-.627-.93-.102.25-.809.4-1.896.4-1.327 0-1.733.112-1.733.48 0 .652 4.007.7 4.256.05zm5.457.186c.083-.134-.053-.521-.301-.86-.249-.34-.452-.447-.452-.237 0 .248-.612.38-1.76.38-1.351 0-1.76.112-1.76.48 0 .378.442.48 2.061.48 1.134 0 2.129-.109 2.212-.243zm5.44 0c.083-.134-.053-.521-.301-.86-.249-.34-.452-.447-.452-.237 0 .248-.612.38-1.76.38-1.351 0-1.76.112-1.76.48 0 .378.442.48 2.061.48 1.134 0 2.129-.109 2.212-.243zm5.322-.156c-.007-.55-.624-1.49-.63-.96-.003.27-.573.4-1.765.4-1.351 0-1.76.111-1.76.48 0 .377.444.48 2.08.48 1.453 0 2.079-.12 2.075-.4zm5.765-.054c0-.615-.316-.684-2.554-.558-1.394.079-1.926.234-1.926.56 0 .346.525.452 2.24.452 1.72 0 2.24-.106 2.24-.454zm5.236-.026c.112-.293 0-.48-.286-.48-.259 0-.481-.18-.495-.4-.02-.32-.058-.32-.187 0-.098.244-.775.4-1.735.4-1.185 0-1.573.118-1.573.48 0 .376.44.48 2.046.48 1.523 0 2.093-.123 2.23-.48zm5.314.24c-.018-.42-.95-1.5-.95-1.101 0 .244-.575.38-1.6.38-1.209 0-1.6.118-1.6.48 0 .378.444.48 2.08.48 1.144 0 2.075-.107 2.07-.24zm5.77-.01c0-.42-1.233-1.33-1.346-.993-.115.345-.875.54-2.254.578-.484.014-.88.169-.88.345 0 .183.96.32 2.24.32 1.232 0 2.24-.112 2.24-.25zm5.12-.204c0-.609-.327-.685-2.396-.557-1.251.078-1.764.241-1.764.56 0 .341.505.45 2.08.45 1.581 0 2.08-.108 2.08-.453zm5.44 0c0-.609-.327-.685-2.396-.557-1.251.078-1.764.241-1.764.56 0 .341.505.45 2.08.45 1.581 0 2.08-.108 2.08-.453zm-65.179-.106c.076-.132.038-.518-.085-.857-.21-.577-.238-.58-.443-.046-.195.509-.599.557-3.789.456-2.654-.084-3.604-.01-3.703.287-.103.306.81.4 3.873.4 2.205 0 4.07-.108 4.147-.24zm5.659-.08c0-.176-.296-.32-.659-.32-.362 0-.57-.144-.461-.32.109-.176.045-.32-.141-.32s-.339.144-.339.32c0 .176-.567.32-1.261.32s-1.35.144-1.459.32c-.125.202.637.32 2.061.32 1.293 0 2.259-.137 2.259-.32zm5.28 0c.225-.364-.009-.398-2.24-.325-2.483.082-2.555.645-.083.645 1.169 0 2.214-.144 2.323-.32zm-7.2-1.12a.481.481 0 0 0-.48-.48c-.264 0-.497-.252-.517-.56-.035-.534-.044-.534-.184 0-.103.396-.467.56-1.242.56-.762 0-1.097.147-1.097.48 0 .368.409.48 1.76.48s1.76-.112 1.76-.48zm6.196 0c.138-.36-.053-.48-.766-.48-.677 0-.96-.16-.987-.56-.035-.534-.044-.534-.184 0-.111.427-.482.56-1.562.56-1.046 0-1.417.125-1.417.48 0 .383.476.48 2.366.48 1.807 0 2.409-.113 2.55-.48zm5.245-.08c.083-.251-.176-.4-.694-.4-.455 0-.827-.173-.827-.384 0-.299-.085-.299-.384 0-.211.211-.855.384-1.43.384-.812 0-1.003.11-.856.494.148.386.614.474 2.124.4 1.192-.058 1.986-.248 2.067-.494zm5.44 0c.083-.25-.173-.4-.678-.4-.446 0-.958-.252-1.137-.56-.311-.534-.327-.534-.336 0-.007.407-.273.56-.97.56-.653 0-.96.158-.96.495 0 .404.365.478 1.975.4 1.222-.059 2.025-.248 2.106-.495zm5.353.25c.106-.172-.21-.41-.7-.53-.492-.12-1-.377-1.13-.57-.161-.241-.236-.226-.24.05-.002.228-.408.4-.945.4-.94 0-1.464.368-1.077.755.328.328 3.881.236 4.092-.106zm5.286-.01c0-.176-.365-.32-.81-.32-.45 0-.898-.23-1.008-.515-.181-.474-.22-.474-.486 0-.158.283-.64.515-1.072.515-.431 0-.784.144-.784.32 0 .18.907.32 2.08.32s2.08-.14 2.08-.32zm5.44 0c0-.176-.365-.32-.81-.32-.45 0-.898-.23-1.008-.515-.181-.474-.22-.474-.486 0-.158.283-.64.515-1.072.515-.431 0-.784.144-.784.32 0 .18.907.32 2.08.32s2.08-.14 2.08-.32zm5.259.035c.21-.342-1.749-.61-3.053-.419-.51.075-.926.264-.926.42 0 .371 3.749.37 3.979-.001zm5.621-.002c0-.322-1.942-.566-3.28-.412-1.712.197-.85.699 1.2.699 1.144 0 2.08-.13 2.08-.287zm5.12.002c0-.329-1.67-.562-2.96-.414-1.646.19-.888.699 1.04.699 1.056 0 1.92-.128 1.92-.285zm5.44-.035c0-.176-.504-.32-1.12-.32-.84 0-1.13-.14-1.157-.56-.036-.534-.044-.534-.184 0-.088.34-.452.56-.922.56-.428 0-.777.144-.777.32 0 .18.907.32 2.08.32s2.08-.14 2.08-.32zm5.44 0c0-.18-.907-.32-2.08-.32s-2.08.14-2.08.32.907.32 2.08.32 2.08-.14 2.08-.32zm5.12.008c0-.188-.828-.328-1.939-.328-1.066 0-1.864.121-1.772.27.245.397 3.711.45 3.711.058zm-.06-4.408c-.103-.53-2.202-.565-37.944-.642-37.675-.08-37.836-.078-37.836.56 0 .639.187.642 37.943.642 35.965 0 37.938-.03 37.836-.56zm9.681-.092c.605-.323.619-1.004.619-30.864 0-21.696-.103-30.76-.355-31.314-.196-.429-.706-.94-1.135-1.135-.56-.255-13.755-.355-46.802-.355H41.046l-.843.663-.843.663v62.354h4.606c3.799 0 4.638-.084 4.79-.48.162-.423 4.73-.48 38.434-.48 32.787 0 38.25.065 38.25.453 0 .25.18.526.4.615.768.31 8.287.209 8.901-.12zm-92.288-3.402c-.117-.117-.213-12.86-.213-28.32V20.032H87.2c35.752 0 44.961.082 44.966.4.005.317 0 52.73-.005 55.52l-.001.72H87.413c-24.61 0-44.842-.096-44.96-.214zm89.387-28.266v-27.84H42.88v55.68h88.96z" style="fill:#000" transform="translate(-29.76 -15.872)"/></svg>