<svg width="525" height="838" viewBox="0 0 525 838" fill="none" xmlns="http://www.w3.org/2000/svg">
<path d="M270.967 833.941C270.967 831.188 270.239 828.487 269.35 827.938C268.449 827.381 267.733 819.892 267.733 811.029V795.119L260.678 797.242C256.797 798.409 249.64 799.861 244.773 800.469C235.993 801.566 235.849 801.674 226.36 814.268C217.606 825.887 212.753 830.575 212.753 827.413C212.753 826.736 216.444 821.849 220.955 816.553C231.687 803.955 233.147 801.293 229.385 801.185C227.797 801.14 221.564 800.554 215.535 799.884L204.571 798.666L200.217 804.412C190.341 817.447 173.944 836.947 173.944 835.656C173.944 834.894 180.134 826.302 187.7 816.562L201.455 798.854L194.572 797.023C190.786 796.017 185.589 794.358 183.021 793.337C178.933 791.713 178.059 791.901 175.989 794.856C171.108 801.821 142.96 836.827 142.24 836.827C139.963 836.827 151.723 820.276 168.037 800.519C175.24 791.795 175.722 790.72 173.104 789.204C171.513 788.283 167.739 785.421 164.718 782.844C159.424 778.329 159.145 778.27 157.043 781.228C155.843 782.916 151.145 789.024 146.602 794.803C142.059 800.581 134.892 810.188 130.675 816.15C123.648 826.086 120.562 829.076 120.594 825.917C120.601 825.25 127.533 815.613 135.998 804.501C157.236 776.624 156.979 777.022 155.237 774.623C154.409 773.482 148.597 764.898 142.322 755.547L130.914 738.546L124.535 747.43C106.753 772.195 65.734 826.625 63.3801 828.577C60.9817 830.567 60.8275 830.438 61.9568 827.386C63.0943 824.313 74.7486 808.217 114.713 754.523C121.713 745.118 127.769 736.581 128.17 735.552C128.57 734.523 126.93 729.431 124.524 724.238C114.872 703.399 111.812 696.404 106.213 682.375C102.998 674.323 99.6586 667.484 98.7906 667.177C97.293 666.648 94.1366 670.961 67.1583 710.402C37.8244 753.287 2.08162 802.884 0.510503 802.884C-0.610455 802.884 34.551 749.747 47.9163 731.243C52.9733 724.242 60.4113 713.675 83.2298 681.074L96.6502 661.9L93.8073 651.98C91.7113 644.666 90.7699 633.991 90.224 611.349C89.2257 569.939 91.3284 549.866 100.371 514.488C105.073 496.089 107.418 483.88 106.795 481.043C105.845 476.718 108.121 470.173 111.298 468.1C112.151 467.543 113.228 463.725 113.692 459.614C114.242 454.731 115.31 452.141 116.773 452.141C118.005 452.141 120.41 449.777 122.119 446.888C123.827 443.999 127.637 439.275 130.584 436.39C135.985 431.105 139.551 429.409 137.397 433.149C136.721 434.323 136.851 434.605 137.706 433.823C138.515 433.082 139.178 431.672 139.178 430.69C139.178 429.707 143.544 427.091 148.88 424.876C156.705 421.628 161.164 420.875 171.923 420.988C184.679 421.122 185.264 420.97 185.264 417.53C185.264 414.02 191.775 406.884 194.978 406.884C195.861 406.884 196.583 405.764 196.583 404.395C196.583 402.379 196.996 402.293 198.764 403.944C199.963 405.064 200.64 407.143 200.268 408.565C199.896 409.987 200.734 412.098 202.13 413.256C203.715 414.571 204.668 417.968 204.668 422.305C204.668 428.506 205.277 429.625 210.367 432.769C213.501 434.706 217.077 438.22 218.312 440.579C222.014 447.647 229.48 455.001 233.571 455.61C236.719 456.079 238.647 454.384 244.291 446.183L251.172 436.184L250.664 410.623C249.059 329.846 247.876 300.954 246.128 299.827C244.771 298.952 244.789 298.633 246.197 298.614C247.613 298.596 247.885 293.048 247.246 277.173C246.772 265.394 246.141 255.5 245.842 255.186C245.543 254.872 235.611 251.855 223.771 248.483C211.93 245.111 188.053 238.197 170.71 233.12C120.52 218.426 124.097 219.191 122.919 222.9C122.226 225.085 121.062 225.748 119.223 225.008C117.747 224.414 115.7 223.583 114.673 223.162C113.641 222.738 110.492 226.738 107.624 232.116C104.773 237.463 101.163 242.993 99.6028 244.404C97.2647 246.519 96.9012 248.881 97.5369 257.829C98.2075 267.267 97.8792 269.074 95.0263 271.645C92.3342 274.071 91.1137 274.265 88.2371 272.726C84.0777 270.501 84.8841 269.801 78.9272 280.81C76.2816 285.699 69.1982 298.428 63.1862 309.096C57.1743 319.764 48.0571 336.129 42.9259 345.463C34.3077 361.141 25.7309 376.225 9.6382 404.007C6.17766 409.981 2.41112 414.891 1.26811 414.917C-0.377267 414.955 -0.411044 414.208 1.10593 411.329C2.15974 409.328 3.54858 407.328 4.19224 406.884C4.8359 406.439 8.03011 400.665 11.2905 394.051C14.5508 387.438 20.7511 375.8 25.0688 368.19C29.3865 360.58 39.1085 343.443 46.6731 330.108C61.5816 303.828 73.3443 282.446 78.9832 271.376C82.3483 264.769 82.3917 264.247 79.7378 262.308C76.4106 259.876 75.9862 257.477 79.0941 258.669C80.8534 259.344 81.1199 256.459 80.4956 243.499L79.7246 227.496L85.1956 225.158C90.3338 222.963 90.838 223.036 93.4845 226.358C95.8978 229.388 96.5328 229.547 97.9066 227.471C98.7889 226.138 99.5219 223.321 99.5356 221.212C99.5564 217.986 99.1754 217.697 97.1347 219.389C95.8007 220.496 94.7092 220.847 94.7092 220.17C94.7092 219.492 95.9118 218.059 97.3818 216.984C100.251 214.887 99.132 211.308 95.6076 211.308C94.428 211.308 83.7378 208.391 71.8517 204.827C59.9655 201.263 44.9649 196.77 38.517 194.844L26.7934 191.343V185.466C26.7934 179.923 32.1778 166.051 34.3291 166.051C34.8747 166.051 44.4993 168.893 55.7171 172.367C79.7696 179.815 93.6895 183.806 94.0229 183.35C94.155 183.17 94.7256 171.021 95.2909 156.353L96.3188 129.683L90.2586 126.918C80.1216 122.292 56.4984 115.816 53.6903 116.893C52.2376 117.451 51.049 117.19 51.049 116.314C51.049 115.438 48.0049 113.949 44.2842 113.005C38.7557 111.602 37.2042 111.726 35.7947 113.679C34.8462 114.994 27.5211 129.071 19.5167 144.962C11.5123 160.852 4.12551 174.229 3.10153 174.689C0.307723 175.943 1.24575 173.108 8.90156 157.161C30.2603 112.669 31.6445 109.391 31.6445 103.3C31.6445 95.0262 34.4963 87.1687 38.2226 85.1753C39.8746 84.2915 40.839 82.5596 40.3657 81.3265C39.8923 80.0934 40.9899 75.8263 42.8049 71.844C45.983 64.8706 49.8046 61.6459 52.741 63.4599C54.4419 64.5107 57.3058 60.2559 66.1308 43.5675C83.5076 10.7074 87.0252 4.55564 89.9522 1.90795C95.3109 -2.93953 93.8786 2.95654 86.3006 16.9392C82.5653 23.8315 77.0409 34.1985 74.0242 39.9768C71.0076 45.7552 67.8171 51.3589 66.9343 52.4294C66.0515 53.5 64.0341 56.915 62.4513 60.0183C60.1067 64.615 59.9822 65.8175 61.7794 66.5068C62.9927 66.9722 63.9854 68.4079 63.9854 69.6972C63.9854 70.9866 65.22 74.1918 66.729 76.8199C69.3202 81.3328 69.313 81.8419 66.5998 85.9809C63.2624 91.0722 63.5299 91.5449 70.7297 93.2778C73.6906 93.9904 84.8452 97.2926 95.5177 100.616C106.19 103.939 119.288 107.698 124.624 108.969C138.739 112.33 147.04 114.753 148.88 116.049C149.769 116.675 152.758 117.67 155.521 118.26C160.375 119.296 160.614 119.083 162.623 111.912C164.613 104.806 169.768 99.0082 172.561 100.734C173.841 101.524 181.601 90.4075 187.893 78.7688C189.575 75.6573 193.236 69.815 196.028 65.7858C204.02 54.2538 209.139 44.2186 208.276 41.7744C207.84 40.5406 208.67 38.8679 210.119 38.0573C211.568 37.2467 212.753 35.5287 212.753 34.2394C212.753 32.9501 213.75 31.8952 214.969 31.8952C216.187 31.8952 221.278 25.4408 226.281 17.5521C231.284 9.66348 236.472 2.30093 237.81 1.19094C243.184 -3.26729 240.028 5.21595 230.979 19.5503C223.27 31.7627 221.71 35.4534 221.681 41.5458C221.648 48.5751 221.419 48.923 215.921 50.2815C211.037 51.4882 209.134 53.487 202.984 63.8697C199.019 70.565 194.683 77.6504 193.349 79.6149C186.359 89.9083 179.43 102.303 180.268 103.014C181.494 104.054 184.752 109.238 187.229 114.093C188.806 117.185 188.693 118.731 186.627 122.329L184.084 126.759L200.44 131.231C209.436 133.691 222.233 137.44 228.879 139.563C235.524 141.685 241.164 143.422 241.411 143.422C242.458 143.422 241.719 127.318 240.265 118.442C238.449 107.363 240.116 103.393 248.796 98.1169C255.448 94.0733 272.554 94.5579 277.384 98.9267C282.014 103.115 284.414 111.999 283.458 121.415C282.996 125.962 283.09 135.379 283.665 142.341L284.712 154.999L293.605 158.2C305.18 162.366 316.555 165.943 346.159 174.727C359.5 178.686 380.238 184.882 392.245 188.496C412.308 194.536 414.239 194.85 416.096 192.373C417.208 190.891 418.118 188.144 418.118 186.269C418.118 182.15 421.005 178.981 424.758 178.981C426.275 178.981 430.128 175.526 433.32 171.304C444.704 156.245 449.214 150.506 460.95 136.148C483.858 108.123 493.411 95.6762 497.857 88.0626C500.323 83.84 503.219 80.3418 504.293 80.2888C505.368 80.2359 509.988 75.5064 514.561 69.779C520.671 62.1281 523.132 60.0318 523.841 61.8775C524.471 63.5196 524.157 63.9889 522.932 63.2324C521.681 62.4596 521.402 62.9686 522.091 64.7648C522.659 66.2441 522.536 67.4544 521.817 67.4544C521.098 67.4544 519.649 69.3441 518.596 71.6538C517.411 74.2549 515.805 75.5166 514.376 74.9688C512.873 74.3922 512.374 74.8735 512.941 76.3516C513.42 77.5986 512.675 80.241 511.286 82.2236C509.896 84.2062 509.085 87.3312 509.482 89.168C509.982 91.4766 508.721 93.6682 505.396 96.2672C502.751 98.3351 500.587 99.2013 500.587 98.1923C500.587 97.1832 499.855 96.8095 498.961 97.3617C497.441 98.3012 480.496 118.99 465.82 137.826C462.263 142.392 453.311 153.624 445.927 162.785C438.543 171.946 432.865 180.388 433.309 181.544C433.841 182.931 432.358 183.867 428.946 184.297C424.177 184.897 424.233 184.941 429.68 184.866C432.927 184.82 436.747 185.749 438.17 186.929C441.079 189.343 441.666 197.624 439.042 199.245C436.902 200.567 442.047 204.718 445.916 204.791C449.287 204.854 449.881 205.779 451.254 213.095C452.147 217.854 451.639 219.717 448.428 223.448C444.061 228.522 446.422 228.719 419.886 221.072C404.742 216.709 402.913 217.314 404.143 226.277C404.66 230.045 405.497 239.674 406.003 247.675C407.635 273.518 407.866 274.251 415.456 277.696C422.975 281.109 429.437 281.721 429.437 279.021C429.437 278.037 430.528 277.65 431.863 278.162C433.605 278.83 434.288 277.995 434.288 275.197C434.288 273.055 435.018 270.852 435.909 270.301C436.892 269.694 436.974 268.223 436.119 266.569C433.476 261.455 436.939 253.332 441.763 253.332C443.102 253.332 444.011 251.56 444.042 248.887C444.091 244.654 447.217 238.785 449.424 238.785C449.993 238.785 450.458 241.695 450.458 245.251C450.458 248.807 451.186 251.716 452.076 251.716C452.965 251.716 453.693 253.618 453.693 255.943C453.693 260.08 453.778 260.113 457.735 257.522C459.959 256.066 461.778 255.53 461.778 256.331C461.778 257.132 460.141 258.876 458.139 260.207C454.865 262.386 454.501 263.937 454.501 275.732C454.501 288.573 454.591 288.868 458.948 290.397C462.889 291.779 463.395 292.765 463.395 299.071C463.395 304.407 462.185 307.855 458.559 312.86C451.845 322.124 443.591 323.617 435.104 317.102C432.504 315.105 432.309 314.359 434.099 313.253C435.32 312.499 435.819 311.073 435.208 310.085C433.138 306.736 431.054 308.265 431.054 313.132C431.054 316.398 429.21 320.016 425.394 324.238C422.282 327.682 419.735 331.732 419.735 333.239C419.735 337.616 416.62 342.23 413.665 342.23C410.366 342.23 402.887 333.95 405.005 332.642C405.891 332.094 405.971 328.765 405.199 324.547C404.478 320.606 403.998 313.517 404.132 308.794C404.374 300.24 403.885 299.541 398.086 300.159C396.407 300.338 394.574 299.741 394.012 298.832C393.45 297.923 385.364 294.952 376.043 292.23L359.096 287.282L355.413 291.723C353.387 294.166 347.012 303.075 341.246 311.52C335.479 319.966 323.857 336.993 315.417 349.359L300.074 371.842V385.085C300.074 392.369 300.535 402.743 301.1 408.14C302.102 417.722 302.218 417.918 306.056 416.459C312.398 414.049 316.446 414.681 327.189 419.761C339.337 425.506 340.787 428.157 335.05 434.142C329.928 439.486 329.778 441.029 334.117 443.737C336.935 445.497 337.362 447.176 336.946 454.868C336.671 459.965 337.164 464.118 338.074 464.364C338.963 464.605 345.974 457.771 353.653 449.178C379.158 420.634 396.218 401.351 406.009 389.998C411.335 383.822 417.147 377.232 418.926 375.354C420.705 373.476 428.709 364.395 436.714 355.175C444.718 345.954 454.942 334.36 459.434 329.41C463.927 324.46 477.648 308.949 489.926 294.941C509.843 272.217 519.169 263.03 522.319 263.03C522.88 263.03 522.56 264.485 521.608 266.263C520.656 268.041 518.448 269.496 516.7 269.496C514.246 269.496 513.523 270.602 513.523 274.359C513.523 277.951 511.305 281.683 505.034 288.643C500.364 293.825 488.904 306.705 479.565 317.265C470.227 327.825 458.901 340.49 454.396 345.409C449.892 350.328 440.432 360.942 433.375 368.995C415.689 389.176 381.475 427.481 366.141 444.268C349.766 462.194 345.914 467.144 347.836 467.792C352.595 469.397 359.921 475.051 359.055 476.451C358.501 477.348 358.939 477.882 360.029 477.638C361.12 477.394 363.721 479.665 365.809 482.686C368.853 487.089 369.606 490.289 369.606 498.823V509.467L393.458 484.861C406.576 471.328 423.531 453.884 431.137 446.096C438.742 438.309 447.6 428.3 450.821 423.855C456.931 415.425 466.314 405.957 472.914 401.565C475.036 400.153 487.131 388.77 499.792 376.271C520.396 355.93 529.263 348.343 523.05 356.373C515.778 365.772 484.154 398.389 475.545 405.371C469.923 409.93 461.439 418.5 456.692 424.415C451.945 430.33 432.409 451.044 413.28 470.446C394.151 489.849 378.022 507.47 377.437 509.604C375.72 515.875 377.444 526.819 380.717 530.425C382.384 532.262 383.438 534.608 383.06 535.638C382.682 536.668 383.13 537.978 384.056 538.55C385.043 539.16 385.367 538.619 384.839 537.243C384.288 535.808 384.853 534.99 386.295 535.139C388.639 535.381 447.149 478.355 462.586 460.783C467.033 455.721 474.31 448.707 478.757 445.196C483.204 441.685 494.747 431.227 504.41 421.955C514.072 412.683 522.316 405.436 522.73 405.85C524.051 407.17 518.093 414.965 515.763 414.965C514.531 414.965 513.523 415.993 513.523 417.249C513.523 418.504 504.655 427.778 493.815 437.857C472.697 457.493 471.051 459.107 442.504 488.191C432.204 498.684 415.99 514.607 406.471 523.576L389.165 539.882L391.58 544.549C392.908 547.115 393.488 550.034 392.87 551.034C392.202 552.115 392.47 552.405 393.531 551.75C395.742 550.384 399.284 556.587 397.73 559.102C397.046 560.207 397.317 560.489 398.411 559.813C400.742 558.373 410.505 577.685 413.181 589.031C414.27 593.647 414.639 599.068 414 601.078C412.982 604.284 413.132 604.445 415.214 602.384C416.52 601.092 429.113 589.489 443.198 576.598C457.283 563.708 476.139 546.14 485.101 537.558C504.35 519.125 517.513 507.2 522.237 503.913C525.586 501.583 525.602 501.613 523.077 505.529C521.661 507.724 518.933 510.239 517.013 511.116C515.094 511.994 513.523 513.694 513.523 514.895C513.523 517.702 478.278 552.808 466.629 561.605C461.737 565.299 448.771 576.912 437.814 587.411L417.893 606.5L417.361 621.856C416.876 635.881 414.883 649.351 410.069 671.154C409.088 675.599 404.613 689.192 400.125 701.362C395.467 713.993 392.375 724.782 392.921 726.5C393.447 728.156 392.964 730.738 391.848 732.237C389.761 735.041 376.547 738.231 367.017 738.231C363.084 738.231 361.117 739.211 359.71 741.868C355.796 749.26 346.871 758.753 337.359 765.641L327.578 772.724L328.305 793.865C328.931 812.1 328.819 813.451 327.49 803.693C326.642 797.47 324.913 788.378 323.647 783.489L321.345 774.599L322.099 782.68C322.513 787.125 323.112 796.562 323.43 803.651C323.939 815.015 323.739 816.173 321.743 813.444C319.694 810.644 319.478 811.149 319.478 818.739C319.478 826.905 319.354 827.129 314.825 827.129C309.597 827.129 306.732 824.477 307.414 820.266C307.665 818.714 307.095 816.965 306.148 816.38C305.2 815.795 304.884 816.058 305.445 816.966C306.006 817.873 305.044 819.901 303.308 821.472C301.571 823.043 300.636 825.141 301.231 826.133C301.825 827.126 301.08 826.939 299.575 825.719C297.137 823.742 296.731 824.033 295.862 828.38C294.971 832.833 293.278 833.674 288.754 831.911C288.31 831.737 287.4 831.682 286.733 831.787C286.066 831.892 285.52 830.951 285.52 829.696C285.52 828.215 286.953 827.571 289.602 827.862C291.847 828.108 294.064 827.696 294.528 826.945C296.088 824.423 292.099 819.403 287.171 817.686C282.409 816.026 282.283 816.114 282.172 821.152C282.089 824.951 281.752 825.544 280.901 823.387C279.807 820.614 279.579 820.636 276.722 823.791C273.728 827.098 273.748 827.13 278.827 827.13C283.552 827.13 283.925 827.518 283.577 832.08C283.238 836.531 282.991 836.745 281.126 834.196C279.513 831.991 279.009 831.879 278.861 833.69C278.755 834.971 278.773 836.619 278.901 837.352C279.028 838.084 278.375 838.216 277.449 837.644C276.523 837.072 276.266 835.745 276.878 834.695C277.49 833.646 276.41 834.172 274.479 835.866C270.967 838.945 270.967 838.944 270.967 833.941ZM291.988 830.362C291.988 829.473 291.218 828.746 290.276 828.746C289.334 828.746 289.013 829.473 289.563 830.362C290.112 831.251 290.883 831.978 291.275 831.978C291.667 831.978 291.988 831.251 291.988 830.362ZM236.717 790.358C237.044 788.06 238.352 786.721 240.273 786.721C246.35 786.721 260.618 761.498 259.903 752.017C259.653 748.69 260.623 746.4 263.061 744.561C265.004 743.096 266.072 741.084 265.444 740.069C263.434 736.818 253.932 737.961 249.777 741.955C245.304 746.255 209.519 792.47 209.519 793.947C209.519 794.49 215.522 794.722 222.86 794.464C235.297 794.026 236.235 793.749 236.717 790.358ZM212.927 783.893C216.796 778.781 222.924 770.962 226.543 766.517C234.341 756.941 245.094 741.173 245.094 739.314C245.094 737.429 249.407 733.382 251.416 733.382C252.352 733.382 253.561 731.617 254.103 729.458C254.645 727.3 255.994 725.187 257.102 724.762C258.457 724.242 258.966 721.023 258.659 714.907C258.279 707.359 258.734 705.493 261.35 703.86C263.082 702.779 264.499 700.251 264.499 698.242C264.499 694.005 264.443 693.993 256.152 696.476C250.627 698.131 247.282 701.745 228.858 725.974C217.31 741.161 202.413 760.602 195.754 769.177C189.095 777.752 183.646 785.549 183.646 786.504C183.646 788.343 196.643 792.884 202.45 793.074C204.814 793.151 208.094 790.277 212.927 783.893ZM259.623 789.808L267.843 788.046L267.383 780.92C267.131 777 266.863 773.793 266.789 773.792C266.715 773.791 263.518 776.684 259.686 780.22C255.854 783.756 251.367 787.078 249.715 787.602C246.162 788.73 245.691 791.57 249.057 791.57C250.347 791.57 255.102 790.777 259.623 789.808ZM208.216 748.333C223.698 728.109 237.975 709.253 239.943 706.432L243.522 701.302L230.968 702.199C224.062 702.693 217.573 703.547 216.546 704.097C215.519 704.647 202.992 720.69 188.708 739.749C167.229 768.407 163.077 774.814 164.702 776.783C167.197 779.805 175.789 785.091 178.219 785.099C179.235 785.102 192.734 768.558 208.216 748.333ZM262.988 766.785C262.07 765.867 261.098 765.431 260.829 765.817C260.56 766.202 257.989 770.518 255.116 775.407L249.892 784.297L257.275 776.375C262.351 770.928 264.136 767.932 262.988 766.785ZM324.313 766.159C322.566 763.438 322.518 763.442 323.399 766.245C323.91 767.874 324.428 770.783 324.549 772.71C324.769 776.212 324.77 776.211 325.464 772.625C325.846 770.65 325.328 767.741 324.313 766.159ZM187.285 736.342C200.403 718.873 211.136 704.322 211.136 704.006C211.136 703.691 206.588 703.216 201.03 702.951C195.471 702.685 184.924 700.471 177.592 698.031L164.26 693.593L150.403 712.008C142.781 722.137 136.216 731.283 135.812 732.334C135.045 734.333 144.885 751.308 154.503 764.576C158.833 770.55 160.506 771.848 161.78 770.219C162.689 769.057 174.167 753.812 187.285 736.342ZM338.26 760.539C346.305 754.411 358.146 740.577 356.485 739.248C356.142 738.974 349.131 739.464 340.904 740.337L325.946 741.926V752.374C325.946 760.997 326.37 762.66 328.372 761.892C329.706 761.38 330.797 761.666 330.797 762.527C330.797 765.016 333.235 764.367 338.26 760.539ZM265.57 731.362C265.121 730.251 264.754 731.16 264.754 733.382C264.754 735.605 265.121 736.514 265.57 735.403C266.018 734.292 266.018 732.473 265.57 731.362ZM349.145 735.403C348.732 736.069 350.074 736.604 352.128 736.59C355.132 736.57 355.387 736.259 353.436 734.999C351.363 733.66 351.422 733.428 353.84 733.407C355.397 733.394 356.67 734.271 356.67 735.358C356.67 736.445 357.762 735.776 359.097 733.871C360.432 731.966 362.376 724.933 363.416 718.242C366.541 698.153 361.768 684.314 350.541 680.908C347.663 680.035 345.41 681.074 340.43 685.571C336.906 688.754 333.478 691.362 332.814 691.368C330.79 691.385 326.012 700.963 326.889 703.247C327.341 704.424 326.659 706.259 325.374 707.325C323.069 709.237 323.059 711.053 325.248 729.341L326.022 735.807L337.959 734.999C344.524 734.554 349.557 734.736 349.145 735.403ZM261.632 731.105C262.164 728.324 261.759 727.449 260.213 728.042C259.023 728.499 258.502 729.604 259.055 730.5C259.609 731.395 259.059 732.762 257.833 733.538C256.036 734.676 256.116 734.954 258.246 734.974C259.763 734.988 261.204 733.341 261.632 731.105ZM372.84 733.487C367.573 732.476 367.881 732.311 377.287 731.116L387.394 729.832L387.419 723.93C387.431 720.683 388.139 716.936 388.99 715.603C390.419 713.362 390.068 719.707 388.253 728.937C387.947 730.493 388.356 731.766 389.162 731.766C389.968 731.766 390.628 729.079 390.628 725.795C390.628 722.511 393.484 712.51 396.974 703.571C400.465 694.631 403.746 685.135 404.266 682.468C405.148 677.937 405.058 677.99 402.893 683.276C399.291 692.072 399.981 687.513 405.831 663.88C408.802 651.879 411.549 643.514 411.936 645.292C412.323 647.07 412.326 640.805 411.942 631.37C411.468 619.711 411.828 613.854 413.064 613.091C414.065 612.473 414.884 611.209 414.884 610.284C414.884 609.358 410.336 612.917 404.777 618.193C399.218 623.469 383.937 637.807 370.819 650.057C349.695 669.782 344.056 675.963 348.181 674.874C354.213 673.281 363.607 683.752 366.52 695.314C368.705 703.99 367.688 726.289 364.865 731.56C363.101 734.855 363.347 734.99 370.762 734.786C378.149 734.583 378.243 734.524 372.84 733.487ZM390.742 711.562C390.742 710.673 391.782 708.127 393.053 705.905C394.324 703.682 395.364 702.591 395.364 703.48C395.364 704.369 394.324 706.915 393.053 709.137C391.782 711.36 390.742 712.451 390.742 711.562ZM396.406 697.823C397.001 695.601 398.162 692.691 398.986 691.358C400.027 689.673 400.155 690.166 399.403 692.974C398.809 695.197 397.647 698.106 396.823 699.439C395.782 701.124 395.654 700.631 396.406 697.823ZM384.564 732.312C383.452 731.863 381.633 731.863 380.521 732.312C379.41 732.76 380.319 733.127 382.543 733.127C384.766 733.127 385.676 732.76 384.564 732.312ZM142.718 716.789C147.333 710.358 153.342 702.084 156.07 698.403L161.03 691.709L153.027 686.576C141.128 678.943 125.181 661.247 120.528 650.51C118.334 645.448 116.114 641.294 115.595 641.279C115.076 641.265 111.891 645.258 108.517 650.154L102.383 659.057L106.631 668.849C108.968 674.234 110.88 679.457 110.88 680.455C110.88 681.453 114.831 690.679 119.66 700.957C124.49 711.234 129.201 721.644 130.131 724.088C131.061 726.533 132.385 728.521 133.074 728.507C133.763 728.492 138.103 723.219 142.718 716.789ZM221.647 690.194C225.204 685.129 228.361 680.4 228.662 679.684C228.963 678.967 226.416 677.217 223.002 675.795C219.589 674.372 214.859 671.833 212.492 670.152C209.683 668.158 204.065 666.752 196.321 666.105L184.455 665.115L175.87 677.442C170.078 685.759 167.974 689.988 169.402 690.441C188.396 696.464 199.956 699.056 208.711 699.255C214.8 699.392 215.557 698.862 221.647 690.194ZM238.719 696.152C246.312 694.856 249.902 693.414 251.363 691.076C252.485 689.28 253.171 687.643 252.887 687.438C252.603 687.234 247.832 685.614 242.284 683.84L232.196 680.614L225.709 689.285C222.141 694.054 219.221 698.272 219.221 698.657C219.221 699.391 221.33 699.12 238.719 696.152ZM317.052 697.823C316.503 696.934 317.369 696.149 318.978 696.079C320.603 696.008 321.023 695.595 319.924 695.15C318.835 694.709 316.308 695.494 314.309 696.894L310.673 699.439H314.363C316.41 699.439 317.607 698.72 317.052 697.823ZM261.265 689.741C263.236 688.468 263.027 688.17 260.147 688.15C258.199 688.137 256.155 688.852 255.605 689.741C254.332 691.799 258.079 691.799 261.265 689.741ZM321.152 686.615C320.231 684.896 319.467 681.441 319.453 678.937C319.44 676.434 318.652 673.295 317.703 671.962C316.427 670.169 316.22 671.578 316.909 677.369C317.757 684.496 317.515 685.29 314.213 686.197C310.848 687.12 310.938 687.272 315.435 688.276C318.104 688.872 320.858 689.445 321.556 689.55C322.255 689.655 322.073 688.335 321.152 686.615ZM173.299 674.866C176.057 671.046 178.715 667.194 179.205 666.305C179.762 665.297 175.742 664.664 168.532 664.625C159.852 664.578 155.283 663.679 150.225 661.023C138.748 654.997 128.987 647.817 123.789 641.577C118.879 635.682 118.832 635.665 120.615 640.443C126.326 655.742 137.012 668.929 153.688 681.255C164.614 689.331 162.315 690.08 173.299 674.866ZM341.594 672.057C377.603 638.534 410.916 606.203 411.396 604.315C412.409 600.323 408.544 588.446 401.16 572.862C393.368 556.417 392.812 554.746 395.729 556.549C396.859 557.247 397.158 556.994 396.486 555.906C395.875 554.919 394.373 554.495 393.148 554.965C391.855 555.461 390.493 554.475 389.903 552.616C389.343 550.854 387.796 548.509 386.464 547.404C384.469 545.749 383.218 546.185 379.36 549.88C374.897 554.154 374.717 554.866 375.524 565.077C375.99 570.969 377.003 578.336 377.777 581.447C380.611 592.852 375.135 604.656 363.16 612.95C357.061 617.175 356.633 617.941 357.811 622.528C359.994 631.033 359.08 649.58 356.29 653.374C350.105 661.786 345.668 665.923 338.452 670.006C325.903 677.106 321.992 680.686 323.239 683.933C324.576 687.417 326.28 686.315 341.594 672.057ZM256.69 678.831C256.842 677.275 257.024 673.258 257.094 669.904L257.222 663.805L249.945 664.823C243.018 665.792 240.297 667.685 236.864 673.926C235.576 676.267 236.535 677.065 243.046 679.066C253.399 682.247 256.361 682.196 256.69 678.831ZM345.351 677.714C345.351 677.322 344.623 676.552 343.734 676.003C342.844 675.453 342.117 675.774 342.117 676.715C342.117 677.657 342.844 678.427 343.734 678.427C344.623 678.427 345.351 678.106 345.351 677.714ZM236.942 668.862C238.139 666.634 237.044 666.377 228.433 666.869L218.55 667.434L224.867 671.245C231.429 675.204 233.786 674.739 236.942 668.862ZM342.828 658.724C345.442 656.226 348.106 654.182 348.747 654.182C349.389 654.182 351.511 650.883 353.464 646.851C356.768 640.028 356.876 638.789 355.024 628.976C353.375 620.239 352.583 618.625 350.405 619.561C348.959 620.182 343.066 621.511 337.31 622.515C328.147 624.112 326.385 625.019 323.161 629.802C319.265 635.581 318.349 641.98 321.17 643.722C322.191 644.353 322.617 649.358 322.245 656.344C321.275 674.561 325.715 675.075 342.828 658.724ZM244.059 659.226C245.713 657.785 248.522 653.515 250.301 649.737C252.08 645.959 254.38 642.868 255.411 642.868C256.679 642.868 257.127 639.766 256.793 633.301C256.514 627.895 257.027 623.284 257.973 622.699C260.046 621.419 260.218 597.611 258.154 597.611C257.333 597.611 253.513 599.998 249.665 602.915C245.817 605.833 239.993 609.86 236.723 611.864C230.789 615.501 210.999 636.593 205.867 644.751C204 647.718 202.191 648.806 200.052 648.247C194.083 646.686 194.986 650.749 201.86 656.38C207.262 660.804 210.566 662.193 216.836 662.676C229.072 663.617 240.711 662.142 244.059 659.226ZM198.2 660.576C198.2 659.944 197.108 658.521 195.774 657.415C193.832 655.804 192.834 655.83 190.766 657.545C188.419 659.493 188.448 659.78 191.09 660.706C194.946 662.058 198.2 661.998 198.2 660.576ZM260.039 657.981C262.02 656.758 261.443 651.362 259.243 650.536C258.132 650.119 254.675 652.294 251.562 655.37L245.903 660.962L252.358 659.85C255.909 659.238 259.366 658.397 260.039 657.981ZM182.73 653.374C184.358 649.945 186.582 647.717 188.377 647.717C190.153 647.717 192.155 645.748 193.375 642.803C194.495 640.101 196.585 637.01 198.018 635.934C200.365 634.173 205.096 627.556 222.192 602.115C226.393 595.864 227.711 592.06 228.141 584.938C228.508 578.851 229.432 575.637 230.903 575.331C232.417 575.017 232.907 573.114 232.46 569.286C231.992 565.282 232.523 563.426 234.332 562.732C236.315 561.971 236.472 561.148 235.061 558.889C231.166 552.656 238.764 547.485 243.477 553.162C245.872 556.046 248.941 556.237 253.524 553.785C256.595 552.143 255.843 551.432 244.928 545.666C227.345 536.378 226.792 536.716 227.17 556.547C227.536 575.678 225.092 583.647 216.569 591.128C209.944 596.942 197.92 603.213 190.193 604.885C181.092 606.853 161.284 606.002 151.753 603.232C146.869 601.813 142.696 600.877 142.479 601.152C137.794 607.094 123.816 628.378 123.816 629.57C123.816 632.692 138.851 647.897 145.076 651.071C152.205 654.706 167.45 658.697 174.973 658.896C179.236 659.01 180.472 658.13 182.73 653.374ZM314.627 655.798C314.627 654.909 313.578 654.182 312.297 654.182C311.015 654.182 309.517 654.909 308.967 655.798C308.418 656.687 309.466 657.415 311.297 657.415C313.129 657.415 314.627 656.687 314.627 655.798ZM411.137 652.263C410.621 650.973 410.238 651.356 410.16 653.239C410.09 654.943 410.472 655.898 411.009 655.361C411.547 654.824 411.604 653.43 411.137 652.263ZM108.101 644.666C113.874 635.708 114.127 634.783 112.625 628.085C111.75 624.184 109.3 617.004 107.179 612.13C100.292 596.301 99.1572 589.474 100.017 569.049C100.46 558.533 102.039 543.525 103.527 535.699C105.014 527.873 105.993 519.872 105.703 517.919C105.058 513.585 100.607 531.211 97.0171 552.312C92.5073 578.82 95.4343 654.245 100.97 654.168C101.529 654.16 104.738 649.884 108.101 644.666ZM315.435 636.403C314.821 633.608 313.955 631.686 313.511 632.131C313.066 632.575 313.204 635.225 313.818 638.019C314.432 640.813 315.298 642.735 315.743 642.291C316.188 641.846 316.049 639.197 315.435 636.403ZM214.927 628.655C222.064 620.076 231.085 612.468 246.307 602.193C255.001 596.325 258.024 593.352 258.006 590.692C257.972 585.827 256.294 583.896 251.967 583.743C249.107 583.643 248.323 584.507 248.303 587.784C248.29 590.077 247.548 593.044 246.656 594.378C245.237 596.498 244.76 596.447 242.864 593.974C240.165 590.455 238.626 590.363 238.626 593.721C238.626 595.138 237.163 596.679 235.375 597.147C232.827 597.813 212.711 624.152 205.547 636.203C202.899 640.658 209.079 635.684 214.927 628.655ZM414.41 629.552C414.023 627.541 413.692 628.806 413.674 632.362C413.656 635.918 413.973 637.563 414.378 636.017C414.782 634.472 414.797 631.563 414.41 629.552ZM315.732 626.401C315.215 625.112 314.832 625.495 314.755 627.378C314.684 629.082 315.067 630.036 315.604 629.499C316.141 628.962 316.199 627.568 315.732 626.401ZM133.868 607.187L139.585 598.175L135.212 595.237C132.806 593.622 129.076 589.732 126.923 586.594C123.189 581.153 122.966 579.387 122.119 548.438C121.63 530.589 121.085 518.962 120.906 522.598C120.728 526.235 119.48 532.781 118.133 537.145C112.395 555.734 111.187 605.692 116.476 605.692C117.808 605.692 118.94 609.161 119.648 615.415L120.748 625.139L124.45 620.669C126.486 618.21 130.724 612.143 133.868 607.187ZM415.998 615.794C415.592 614.239 415.259 615.511 415.259 618.623C415.259 621.734 415.592 623.007 415.998 621.451C416.405 619.896 416.405 617.35 415.998 615.794ZM312.432 612.966C315.712 609.688 311.796 609.728 307.445 613.017C304.592 615.174 304.566 615.39 307.157 615.39C308.724 615.39 311.098 614.299 312.432 612.966ZM108.646 589.934C107.43 576.476 107.815 570.161 111.284 546.696C113.518 531.584 115.069 518.916 114.73 518.545C113.243 516.92 111.872 520.998 108.142 538.13C104.788 553.543 104.267 559.549 104.81 576.598C105.34 593.277 107.395 605.689 109.627 605.693C109.871 605.693 109.43 598.602 108.646 589.934ZM313.632 602.056C312.965 600.055 311.882 595.509 311.226 591.953L310.033 585.488L310.236 593.269C310.367 598.292 309.655 601.535 308.228 602.417C306.58 603.435 307.009 603.969 309.918 604.517C312.063 604.921 314.049 605.351 314.332 605.472C314.614 605.593 314.299 604.056 313.632 602.056ZM311.425 572.597C310.3 571.242 308.628 570.133 307.71 570.133C306.792 570.133 307.362 571.592 308.976 573.376C312.32 577.069 314.55 576.36 311.425 572.597ZM373.509 565.381L372.4 557.02L363.44 565.599L368.544 570.157C371.35 572.664 373.865 574.496 374.133 574.229C374.4 573.962 374.12 569.98 373.509 565.381ZM243.477 571.037C243.477 569.756 242.749 568.258 241.86 567.708C240.971 567.159 240.243 568.207 240.243 570.038C240.243 571.868 240.971 573.366 241.86 573.366C242.749 573.366 243.477 572.318 243.477 571.037ZM310.244 562.051C310.797 559.94 312.45 558.819 315.01 558.819C317.835 558.819 324.902 553.064 340.315 538.211L361.7 517.602L356.655 504.672C353.881 497.56 350.986 491.517 350.223 491.244C349.46 490.971 347.921 487.18 346.803 482.82C345.686 478.46 343.711 474.487 342.416 473.99C340.909 473.412 336.818 476.737 331.057 483.222C326.104 488.796 318.854 496.506 314.945 500.354C306.5 508.666 296.963 519.455 299.302 518.051C300.31 517.445 300.956 519.39 300.956 523.03C300.956 526.609 302.394 531.022 304.547 534.043C307.454 538.124 307.698 539.254 305.827 539.971C304.556 540.459 303.101 539.989 302.593 538.928C302.085 537.867 301.983 540.194 302.366 544.101C302.749 548.007 303.951 551.752 305.038 552.423C306.124 553.094 306.575 554.785 306.039 556.179C305.504 557.574 305.762 559.145 306.612 559.67C309.283 561.32 308.303 563.415 304.52 564.143C301.266 564.77 301.331 564.867 305.14 565.064C308.148 565.219 309.647 564.335 310.244 562.051ZM303.308 544.176C303.308 543.235 304.035 542.914 304.925 543.464C305.814 544.013 306.542 544.783 306.542 545.175C306.542 545.567 305.814 545.888 304.925 545.888C304.035 545.888 303.308 545.118 303.308 544.176ZM308.286 543.329C308.364 541.446 308.747 541.063 309.263 542.352C309.73 543.519 309.673 544.913 309.136 545.45C308.598 545.987 308.216 545.033 308.286 543.329ZM306.073 532.957C305.608 531.179 305.887 529.725 306.693 529.725C307.499 529.725 308.159 531.179 308.159 532.957C308.159 534.735 307.88 536.19 307.539 536.19C307.198 536.19 306.538 534.735 306.073 532.957ZM331.889 499.567C330.665 498.344 333.726 494.165 335.846 494.165C336.627 494.165 337.266 495.62 337.266 497.398C337.266 500.504 334.103 501.78 331.889 499.567ZM331.451 490.305C330.397 487.558 331.814 484.468 334.127 484.468C336.166 484.468 336.078 490.477 334.02 491.748C333.124 492.301 331.968 491.652 331.451 490.305ZM365.398 557.372C369.555 553.117 371.268 550.104 370.682 548.078C370.205 546.429 368.251 539.703 366.34 533.131L362.864 521.183L350.065 533.902C343.025 540.897 337.266 547.183 337.266 547.871C337.266 548.558 339.133 549.121 341.414 549.121C347.697 549.121 351.819 551.993 351.819 556.371C351.819 559.679 355.219 563.444 358.363 563.619C358.85 563.646 362.015 560.834 365.398 557.372ZM347.98 554.725C347.423 553.275 344.902 552.353 341.494 552.353C338.427 552.353 335.613 551.808 335.24 551.141C334.867 550.474 334.776 550.818 335.037 551.905C335.299 552.992 333.983 554.953 332.112 556.262C328.932 558.489 329.329 558.675 338.244 559.135C347.974 559.637 349.585 558.907 347.98 554.725ZM223.611 554.374C223.369 552.818 222.533 550.524 221.755 549.275C220.785 547.721 220.928 547.369 222.206 548.158C223.232 548.793 224.073 548.541 224.073 547.6C224.073 546.658 223.445 545.888 222.678 545.888C221.911 545.888 221.478 544.116 221.716 541.95C222.667 533.288 217.739 528.211 201.85 521.487C178.691 511.686 154.771 509.548 140.795 516.028C136.596 517.975 136.488 518.169 139.986 517.473C142.989 516.876 144.608 517.621 146.279 520.368C148.504 524.025 148.491 524.033 145.179 521.09C141.903 518.179 141.848 518.188 142.713 521.494C143.2 523.354 144.24 524.876 145.026 524.876C145.812 524.876 146.455 526.01 146.455 527.396C146.455 528.782 147.061 529.541 147.802 529.083C148.543 528.625 149.15 529.278 149.15 530.533C149.15 531.788 148.518 532.425 147.747 531.949C146.976 531.472 146.681 532.936 147.092 535.202C147.65 538.28 146.744 540.175 143.509 542.694C139.796 545.585 139.715 545.805 142.943 544.236C167.884 532.112 203.021 535.82 218.668 552.227C224.14 557.965 224.173 557.979 223.611 554.374ZM254.923 538.903C253.676 537.656 253.179 537.769 253.179 539.297C253.179 540.821 252.599 540.955 251.158 539.764C250.046 538.845 247.071 538.489 244.545 538.974C239.964 539.853 239.971 539.865 247.779 544.439L255.605 549.024L256.136 544.835C256.427 542.53 255.882 539.861 254.923 538.903ZM378.698 545.702C381.248 543.307 381.934 541.493 380.989 539.641C380.247 538.188 378.364 533.907 376.803 530.129C372.148 518.858 370.131 521.347 371.89 536.19C372.732 543.302 373.79 549.121 374.24 549.121C374.69 549.121 376.696 547.582 378.698 545.702ZM145.5 534.17C144.932 526.419 144.952 526.492 143.431 526.492C141.519 526.492 142.012 533.472 144.029 534.953C144.981 535.652 144.648 536.161 143.22 536.19C141.064 536.234 141.064 536.414 143.22 537.806C144.555 538.668 145.7 539.384 145.766 539.398C145.832 539.411 145.712 537.059 145.5 534.17ZM226.455 524.793C221.964 516.112 215.601 516.139 219.2 524.824C220.665 528.359 222.314 529.725 225.119 529.725C228.933 529.725 228.958 529.631 226.455 524.793ZM235.392 526.315C237.442 524.841 237.382 524.711 235 525.476C233.015 526.114 231.451 524.965 229.703 521.587C228.34 518.951 226.548 516.794 225.723 516.794C224.229 516.794 230.616 527.932 232.158 528.015C232.602 528.039 234.058 527.274 235.392 526.315ZM241.835 523.664C241.801 517.567 239.945 514.972 236.966 516.855C235.656 517.683 235.311 518.383 236.2 518.41C237.09 518.438 236.726 519.165 235.392 520.027C233.319 521.366 233.378 521.597 235.796 521.618C238.337 521.641 239.364 523.434 238.817 526.896C238.712 527.563 239.354 528.108 240.243 528.108C241.132 528.108 241.849 526.108 241.835 523.664ZM213.144 521.387C212.113 520.357 208.875 519.318 205.948 519.078L200.625 518.642L205.477 520.878C211.705 523.749 215.777 524.019 213.144 521.387ZM368.376 519.268C368.796 517.072 368.517 515.66 367.756 516.13C366.416 516.958 365.741 523.259 366.992 523.259C367.333 523.259 367.956 521.463 368.376 519.268ZM213.43 515.813C214.836 515.273 215.987 513.091 215.987 510.964C215.987 506.475 218.579 505.779 219.854 509.925C220.333 511.48 220.366 508.973 219.929 504.353C218.108 485.132 204.213 440.029 199.094 436.724C194.451 433.726 186.091 431.776 187.474 434.014C188.066 434.971 187.811 436.211 186.907 436.77C185.984 437.339 185.264 436.228 185.264 434.236C185.264 430.781 184.873 430.709 170.306 431.492C159.403 432.078 153.26 433.284 147.647 435.941C140.245 439.444 136.559 442.443 139.654 442.443C140.466 442.443 141.003 444.983 140.848 448.088C140.572 453.626 140.63 453.68 143.887 450.917C146.71 448.522 146.897 448.502 145.135 450.785C143.714 452.627 143.604 453.803 144.785 454.533C146.855 455.812 145.425 458.616 142.721 458.582C141.564 458.567 141.763 457.931 143.221 456.99C144.678 456.049 144.877 455.413 143.72 455.398C140.391 455.356 139.793 458.335 142.782 460.074C145.437 461.619 145.41 461.746 142.412 461.815C139.736 461.876 139.596 462.154 141.603 463.431C143.484 464.627 143.626 465.624 142.234 467.871C141.141 469.635 140.963 472.184 141.778 474.385C142.701 476.88 142.505 478.01 141.147 478.027C139.768 478.044 139.836 478.468 141.372 479.441C142.8 480.346 142.976 481.195 141.876 481.875C140.176 482.925 140.367 486.091 142.446 491.337C143.12 493.037 142.827 494.166 141.713 494.166C140.429 494.166 140.5 494.862 141.944 496.428C143.531 498.149 144.609 498.253 146.455 496.86C147.789 495.853 147.51 496.636 145.834 498.6C144.159 500.564 142.045 501.712 141.138 501.151C140.184 500.562 139.981 500.93 140.657 502.024C141.3 503.065 142.496 503.503 143.314 502.998C144.131 502.493 144.369 503.204 143.841 504.578C143.313 505.953 142.118 506.606 141.184 506.029C140.251 505.452 139.938 505.711 140.49 506.604C141.042 507.496 149.705 508.695 159.74 509.267C169.776 509.84 183.444 511.714 190.115 513.432C203.026 516.758 209.297 517.398 213.43 515.813ZM143.22 490.197C143.22 488.95 148.033 487.947 148.716 489.052C149.128 489.717 148.06 490.368 146.342 490.497C144.625 490.626 143.22 490.492 143.22 490.197ZM145.414 480.859C143.502 477.767 143.606 473.692 145.596 473.692C146.584 473.692 147.365 475.753 147.331 478.272C147.262 483.452 147.129 483.633 145.414 480.859ZM141.603 470.657C141.603 470.47 142.574 469.512 143.759 468.528C145.371 467.191 145.916 467.277 145.916 468.869C145.916 470.04 144.945 470.998 143.759 470.998C142.574 470.998 141.603 470.845 141.603 470.657ZM142.142 446.753C142.142 445.568 143.101 444.598 144.273 444.598C145.865 444.598 145.951 445.143 144.614 446.753C143.63 447.938 142.671 448.908 142.483 448.908C142.296 448.908 142.142 447.938 142.142 446.753ZM177.414 447.179C174.869 446.16 173.93 444.81 174.584 443.109C175.121 441.708 175.646 438.622 175.749 436.25C175.873 433.392 176.19 432.914 176.689 434.832C177.109 436.45 179.524 438.144 182.161 438.671C185.711 439.381 186.881 440.523 186.881 443.28C186.881 446.102 183.505 449.564 181.493 448.806C181.343 448.749 179.508 448.017 177.414 447.179ZM253.179 506.378C253.179 498.914 252.626 497.408 249.017 495.044C245.667 492.85 242.825 492.535 234.463 493.43L224.073 494.542V515.185L236.256 514.617C242.957 514.305 248.829 514.679 249.304 515.448C251.325 518.717 253.179 514.376 253.179 506.378ZM118.055 509.493C119.185 503.469 118.117 499.965 115.619 501.508C113.697 502.695 113.635 515.178 115.551 515.178C116.341 515.178 117.468 512.62 118.055 509.493ZM110.88 512.077C110.88 511.261 111.324 509.434 111.868 508.018C112.592 506.133 112.158 505.711 110.251 506.443C107.438 507.522 106.599 513.561 109.263 513.561C110.152 513.561 110.88 512.894 110.88 512.077ZM123.791 507.405C123.772 504.003 123.425 503.583 122.199 505.48C120.134 508.673 120.134 514.029 122.199 512.753C123.088 512.204 123.805 509.797 123.791 507.405ZM365.663 499.921C365.113 496.253 363.153 490.772 361.309 487.74C358.599 483.286 357.69 482.704 356.568 484.706C355.656 486.337 356.957 491.834 360.372 500.777C365.732 514.811 367.846 514.469 365.663 499.921ZM139.548 509.352C139.011 508.815 137.616 508.758 136.449 509.225C135.159 509.741 135.542 510.124 137.426 510.201C139.131 510.271 140.086 509.889 139.548 509.352ZM319.866 485.975C335.047 468.777 333.108 465.781 317.22 481.885C310.198 489.001 305.708 492.475 305.262 491.136C304.869 489.957 308.41 485.083 313.131 480.305C317.852 475.526 321.308 471.21 320.811 470.714C320.314 470.217 316.44 470.588 312.201 471.537C307.963 472.486 304.197 472.965 303.832 472.6C303.102 471.87 300.142 438.17 300.1 430.105C300.081 426.413 299.197 424.811 296.839 424.195C294.187 423.502 293.605 424.145 293.605 427.778C293.605 430.213 294.096 432.696 294.695 433.295C296.244 434.844 296.391 442.443 294.872 442.443C294.175 442.443 293.656 444.079 293.719 446.08C293.828 449.55 293.896 449.568 295.222 446.484C296.598 443.285 296.893 445.362 297.465 462.243C297.547 464.688 298.168 466.688 298.844 466.688C299.52 466.688 300.074 468.143 300.074 469.921C300.074 471.699 299.528 473.154 298.861 473.155C298.194 473.156 297.538 476.791 297.404 481.233C297.27 485.675 297.633 489.016 298.212 488.657C298.791 488.299 299.165 493.21 299.042 499.571L298.818 511.137L303.084 505.645C305.431 502.625 312.982 493.773 319.866 485.975ZM295.222 431.129C295.222 430.24 295.993 429.512 296.935 429.512C297.877 429.512 298.198 430.24 297.648 431.129C297.098 432.018 296.328 432.745 295.935 432.745C295.543 432.745 295.222 432.018 295.222 431.129ZM114.114 495.782C114.114 494.004 113.835 492.549 113.494 492.549C113.153 492.549 112.493 494.004 112.028 495.782C111.563 497.56 111.842 499.014 112.648 499.014C113.454 499.014 114.114 497.56 114.114 495.782ZM122.199 487.889C122.199 484.615 121.253 482.981 119.021 482.398C114.511 481.219 112.812 487.174 116.797 490.192C121.175 493.508 122.199 493.072 122.199 487.889ZM230.541 490.933C230.541 490.044 229.813 489.317 228.924 489.317C228.034 489.317 227.307 490.044 227.307 490.933C227.307 491.822 228.034 492.549 228.924 492.549C229.813 492.549 230.541 491.822 230.541 490.933ZM238.626 469.921H228.924C221.214 469.921 219.221 469.403 219.221 467.401C219.221 466.015 219.949 465.33 220.838 465.88C221.728 466.429 222.456 466.108 222.456 465.167C222.456 464.226 221.879 463.455 221.174 463.455C220.469 463.455 219.063 460.355 218.049 456.566C217.035 452.777 214.421 448.001 212.24 445.953L208.274 442.229L212.123 453.975C214.24 460.435 216.869 469.575 217.965 474.286L219.957 482.851H238.626V469.921ZM230.541 478.002C230.541 477.113 231.632 476.386 232.966 476.386C234.3 476.386 235.392 477.113 235.392 478.002C235.392 478.891 234.3 479.619 232.966 479.619C231.632 479.619 230.541 478.891 230.541 478.002ZM114.996 471.328C115.591 464.627 115.554 464.554 114.278 469.921C113.539 473.032 112.364 477.032 111.668 478.81C110.689 481.315 110.85 481.632 112.386 480.218C113.477 479.215 114.651 475.214 114.996 471.328ZM119.773 474.77C120.323 473.881 120.002 473.153 119.06 473.153C118.118 473.153 117.348 473.881 117.348 474.77C117.348 475.659 117.669 476.386 118.061 476.386C118.453 476.386 119.224 475.659 119.773 474.77ZM355.053 473.961C353.946 472.628 352.262 471.537 351.312 471.537C350.361 471.537 350.996 472.605 352.723 473.91C356.779 476.977 357.571 476.994 355.053 473.961ZM249.99 464.988C250.966 463.164 251.538 460.119 251.26 458.221C250.785 454.984 250.585 454.938 248.039 457.496C244.88 460.67 241.197 461.156 242.69 458.202C243.252 457.091 241.843 458.364 239.559 461.031C237.276 463.698 235.404 466.425 235.4 467.092C235.395 467.759 238.277 468.304 241.803 468.304C246.613 468.304 248.658 467.476 249.99 464.988ZM310.955 467.328C310.418 466.791 309.023 466.733 307.856 467.2C306.566 467.716 306.949 468.099 308.832 468.177C310.537 468.247 311.492 467.865 310.955 467.328ZM335.648 466.688C335.648 465.799 334.375 465.083 332.819 465.096C330.4 465.117 330.341 465.349 332.414 466.688C335.466 468.659 335.648 468.659 335.648 466.688ZM232.818 462.647C235.342 458.796 235.313 458.606 232.195 458.606C229.784 458.606 228.924 459.668 228.924 462.647C228.924 464.87 229.204 466.688 229.546 466.688C229.889 466.688 231.361 464.87 232.818 462.647ZM327.297 463.455C327.923 461.538 327.611 461.423 325.805 462.908C324.549 463.941 321.338 465.132 318.669 465.555C315.005 466.136 315.37 466.27 320.162 466.102C324.22 465.96 326.79 465.007 327.297 463.455ZM315.907 462.537C317.213 462.132 317.87 459.609 317.662 455.803C317.276 448.744 318.991 442.443 321.299 442.443C322.181 442.443 322.479 441.757 321.96 440.918C321.441 440.079 324.309 437.464 328.333 435.107C332.356 432.75 335.648 429.933 335.648 428.848C335.648 423.458 314.348 416.542 306.653 419.434C302.769 420.893 302.726 421.135 303.135 439.354C303.362 449.498 304.145 458.015 304.873 458.28C305.602 458.545 305.817 460.219 305.351 462C304.608 464.84 305.078 465.112 309.161 464.212C311.723 463.647 314.758 462.894 315.907 462.537ZM130.284 456.99C130.284 456.101 128.786 455.374 126.955 455.374C125.123 455.374 124.075 456.101 124.624 456.99C125.174 457.879 126.672 458.606 127.954 458.606C129.236 458.606 130.284 457.879 130.284 456.99ZM329.585 457.536C328.473 457.087 326.654 457.087 325.542 457.536C324.43 457.984 325.34 458.351 327.563 458.351C329.787 458.351 330.696 457.984 329.585 457.536ZM283.903 455.374C283.903 454.485 283.582 453.757 283.19 453.757C282.798 453.757 282.027 454.485 281.478 455.374C280.928 456.263 281.249 456.99 282.191 456.99C283.133 456.99 283.903 456.263 283.903 455.374ZM249.622 451.818C250.689 450.751 251.546 448.387 251.526 446.565C251.493 443.466 251.285 443.513 248.328 447.292C246.589 449.514 245.15 451.878 245.13 452.545C245.076 454.381 247.441 453.997 249.622 451.818ZM328.742 452.781C328.205 452.244 326.81 452.186 325.643 452.653C324.353 453.169 324.736 453.552 326.62 453.63C328.325 453.7 329.28 453.318 328.742 452.781ZM216.627 441.557C214.22 438.403 210.727 435.043 208.864 434.09C207.001 433.137 208.721 435.717 212.686 439.824C221.321 448.77 222.539 449.305 216.627 441.557ZM151.306 428.704C162.801 425.62 178.878 425.636 190.814 428.744C202.074 431.675 204.422 430.679 195.618 426.705C185.977 422.352 157.901 422.793 148.072 427.452C139.279 431.619 139.755 431.803 151.306 428.704ZM276.703 415.312C275.406 414.015 272.643 418.114 272.609 421.386C272.592 422.92 273.505 422.452 275.174 420.069C276.599 418.036 277.287 415.895 276.703 415.312ZM296.031 419.814C296.581 418.925 296.26 418.198 295.318 418.198C294.376 418.198 293.605 418.925 293.605 419.814C293.605 420.703 293.926 421.431 294.318 421.431C294.711 421.431 295.481 420.703 296.031 419.814ZM298.192 399.61C298.281 395.194 297.621 392.337 296.511 392.337C295.506 392.337 295.162 391.858 295.747 391.273C296.333 390.688 295.908 389.094 294.804 387.73C293.203 385.753 293.206 385.496 294.819 386.465C297.345 387.982 297.394 382.844 295.195 347.079C293.543 320.215 289.498 289.22 286.861 283.234C285.907 281.069 285.774 282.135 286.456 286.467C287.017 290.023 287.766 302.388 288.121 313.945C289.097 345.729 290.994 363.243 293.46 363.243C294.042 363.243 294.657 365.243 294.828 367.688C295.116 371.813 294.976 371.919 292.881 369.168C290.888 366.55 290.686 367.401 291.149 376.441C291.437 382.072 291.744 389.086 291.831 392.028C291.918 394.97 292.637 396.976 293.429 396.487C294.22 395.998 295.345 398.137 295.927 401.241C297.351 408.825 298.017 408.345 298.192 399.61ZM291.449 349.235C289.942 347.728 290.104 345.463 291.719 345.463C292.46 345.463 293.066 346.554 293.066 347.888C293.066 350.634 292.948 350.733 291.449 349.235ZM314.614 343.847C318.497 338.068 326.819 325.786 333.108 316.552C353.191 287.066 353.457 286.608 351.229 285.361C350.107 284.734 337.229 280.884 322.61 276.806C307.992 272.728 295.016 269.034 293.775 268.596C291.898 267.934 291.694 270.548 292.563 284.16C293.138 293.157 293.912 301.01 294.283 301.61C294.654 302.21 295.378 310.686 295.893 320.445C296.407 330.205 297.272 344.556 297.814 352.338L298.801 366.486L303.177 360.419C305.585 357.083 310.731 349.625 314.614 343.847ZM281.774 345.16C281.257 343.871 280.874 344.254 280.797 346.137C280.727 347.841 281.109 348.795 281.646 348.258C282.183 347.721 282.241 346.327 281.774 345.16ZM271.584 323.559C272.136 322.12 271.865 321.472 270.948 322.038C270.069 322.581 269.35 323.71 269.35 324.546C269.35 326.871 270.509 326.359 271.584 323.559ZM421.469 306.142C419.405 304.079 419.025 311.138 420.947 315.833C421.887 318.126 422.278 317.564 422.682 313.335C422.969 310.333 422.424 307.096 421.469 306.142ZM452.815 297.085C453.327 296.257 453.006 295.123 452.102 294.565C451.198 294.007 450.458 294.684 450.458 296.07C450.458 298.909 451.429 299.327 452.815 297.085ZM451.563 282.123C451.047 280.834 450.664 281.217 450.586 283.1C450.516 284.804 450.898 285.758 451.435 285.221C451.973 284.684 452.03 283.29 451.563 282.123ZM400.648 269.9C401.25 266.831 399.424 244.591 397.841 235.722L396.861 230.234L393.81 234.914C392.132 237.488 386.775 245.541 381.905 252.811L373.052 266.029L381.435 268.515C397.572 273.301 399.947 273.472 400.648 269.9ZM288.188 250.27C287.63 242.62 286.062 224.723 284.702 210.5C283.343 196.276 282.04 180.78 281.807 176.064C281.573 171.348 280.645 166.984 279.745 166.366C277.729 164.982 274.288 154.148 273.612 147.052C273.336 144.16 272.526 141.25 271.812 140.587C271.098 139.924 271.073 143.382 271.756 148.271C272.967 156.934 274.109 173.551 274.124 182.735C274.129 185.244 274.823 186.87 275.667 186.348C277.174 185.417 280.039 191.439 279.332 194.052C279.134 194.785 279.786 194.882 280.782 194.266C282.081 193.464 282.326 196.055 281.649 203.44C280.336 217.77 280.312 218.557 280.722 233.593C281.044 245.404 282.702 257.893 284.805 264.345C285.186 265.513 286.331 265.953 287.35 265.323C288.642 264.525 288.895 259.967 288.188 250.27ZM285.835 258.99C285.868 256.323 286.231 255.427 286.641 257C287.051 258.573 287.024 260.755 286.581 261.849C286.138 262.943 285.802 261.656 285.835 258.99ZM284.278 237.169C284.278 234.058 284.611 232.785 285.018 234.34C285.424 235.896 285.424 238.442 285.018 239.998C284.611 241.553 284.278 240.281 284.278 237.169ZM282.661 216.157C282.661 213.045 282.994 211.772 283.401 213.328C283.807 214.884 283.807 217.43 283.401 218.985C282.994 220.541 282.661 219.268 282.661 216.157ZM378.43 249.688C393.554 227.816 395.855 223.783 396.079 218.76C396.27 214.477 395.618 213.908 388.202 211.883C383.755 210.669 375.597 208.154 370.073 206.295L360.029 202.915L338.541 208.062C326.722 210.893 310.545 214.786 302.59 216.715L288.128 220.221L288.576 229.875C288.822 235.185 289.28 239.944 289.593 240.451C290.803 242.408 362.849 264.688 366.302 264.173C367.598 263.979 373.056 257.461 378.43 249.688ZM245.094 224.417C245.094 222.738 243.821 219.908 242.264 218.129C239.486 214.954 153.698 149.887 152.29 149.887C151.894 149.887 148.165 156.252 144.003 164.03C138.503 174.308 136.214 180.602 135.626 187.063L134.816 195.953L155.593 202.055C167.02 205.411 185.83 211.013 197.391 214.503C221.768 221.863 240.187 227.016 243.073 227.284C244.185 227.387 245.094 226.097 245.094 224.417ZM327.563 202.732C336.211 200.491 341.865 198.312 340.5 197.747C336.722 196.185 293.283 183.572 288.754 182.722L284.712 181.964L287.695 212.45L299.948 209.582C306.687 208.005 319.114 204.922 327.563 202.732ZM242.614 189.294C242.283 178.964 241.687 170.188 241.289 169.79C240.356 168.858 206.091 158.444 196.583 156.203C192.581 155.26 186.565 154.281 183.214 154.029C179.863 153.776 175.861 152.508 174.32 151.21C171.28 148.65 158.916 144.578 160.126 146.536C160.533 147.195 163.991 149.834 167.81 152.401C181.134 161.358 210.352 183.432 213.408 186.85C215.102 188.745 217.095 190.296 217.837 190.296C219.43 190.296 238.106 204.31 239.485 206.54C242.274 211.051 243.156 206.19 242.614 189.294ZM131.901 198.377C131.901 197.488 131.58 196.761 131.188 196.761C130.796 196.761 130.025 197.488 129.476 198.377C128.926 199.266 129.247 199.993 130.189 199.993C131.131 199.993 131.901 199.266 131.901 198.377ZM134.087 183.426C134.648 178.759 135.034 171.304 134.944 166.859L134.781 158.777L133.521 165.242C130.988 178.238 129.96 191.912 131.517 191.912C132.37 191.912 133.527 188.093 134.087 183.426ZM111.516 184.193C114.784 184.817 115.731 184.35 115.731 182.113C115.731 174.926 119.669 162.812 122.274 161.986C123.841 161.489 125.903 158.023 127.034 153.985C128.132 150.067 130.039 146.474 131.274 146.001C132.508 145.527 133.518 143.362 133.518 141.19C133.518 137.354 130.592 136.089 118.156 134.555C117.267 134.445 114.413 133.456 111.814 132.357C109.214 131.259 106.219 130.693 105.156 131.1C103.102 131.888 101.756 152.951 102.469 173.129C102.887 184.951 103.994 188.736 106.059 185.398C106.774 184.241 109.091 183.73 111.516 184.193ZM260.762 168.071C260.355 166.515 260.023 167.788 260.023 170.9C260.023 174.011 260.355 175.284 260.762 173.728C261.169 172.172 261.169 169.627 260.762 168.071ZM272.071 160.899C271.555 159.609 271.172 159.992 271.094 161.875C271.024 163.579 271.406 164.534 271.944 163.996C272.481 163.459 272.539 162.065 272.071 160.899ZM280.99 136.553C280.428 106.227 278.414 98.273 271.279 98.1895C269.702 98.171 269.324 100.628 269.79 107.856C270.355 116.624 272.347 123.075 272.745 117.426C272.834 116.167 273.444 116.955 274.101 119.177C274.758 121.399 276.141 123.036 277.174 122.814C278.406 122.549 279.052 125.223 279.052 130.587C279.052 135.626 278.432 138.38 277.435 137.765C274.852 136.169 275.519 150.491 278.192 154.023C279.498 155.749 280.589 158.434 280.618 159.989C280.646 161.545 280.851 162.818 281.073 162.818C281.296 162.818 281.258 150.999 280.99 136.553ZM272.149 104.76C271.446 102.071 271.656 101.44 272.856 102.639C273.796 103.579 274.247 105.301 273.858 106.467C273.454 107.678 272.721 106.945 272.149 104.76ZM261.151 149.483C261.088 147.483 260.451 144.392 259.735 142.614C258.789 140.265 258.465 141.259 258.549 146.251C258.613 150.029 259.25 153.12 259.965 153.12C260.68 153.12 261.213 151.483 261.151 149.483ZM144.144 149.195C147.146 146.195 147.057 145.044 143.625 142.439C138.459 138.52 136.884 139.631 138.792 145.846C140.758 152.251 140.961 152.377 144.144 149.195ZM264.253 110.64C263.998 108.668 264.355 106.147 265.046 105.037C265.744 103.917 265.258 101.527 263.953 99.6652C260.779 95.1358 260.173 97.0892 260.937 109.397C261.422 117.199 261.978 119.117 263.15 117.023C264.012 115.484 264.508 112.612 264.253 110.64ZM257.528 108.267C257.121 106.711 256.789 107.984 256.789 111.095C256.789 114.207 257.121 115.48 257.528 113.924C257.935 112.368 257.935 109.822 257.528 108.267ZM178.41 106.752C176.864 106.348 173.953 106.333 171.942 106.72C169.93 107.106 171.195 107.437 174.753 107.455C178.31 107.473 179.956 107.157 178.41 106.752ZM255.867 99.377C255.419 98.2657 255.052 99.1749 255.052 101.397C255.052 103.62 255.419 104.529 255.867 103.418C256.316 102.307 256.316 100.488 255.867 99.377ZM58.3257 69.0708C56.547 68.3068 54.0001 67.6817 52.6661 67.6817C51.1372 67.6817 51.4361 68.1952 53.4746 69.0708C55.2533 69.8348 57.8002 70.4599 59.1342 70.4599C60.6631 70.4599 60.3642 69.9464 58.3257 69.0708ZM329.308 829.419C329.386 827.536 329.769 827.153 330.285 828.443C330.752 829.609 330.695 831.004 330.157 831.541C329.62 832.078 329.238 831.123 329.308 829.419ZM303.308 823.992C303.308 823.156 304.027 822.027 304.906 821.484C305.823 820.917 306.094 821.566 305.542 823.005C304.467 825.805 303.308 826.317 303.308 823.992Z" fill="#08042D"/>
</svg>
