<svg xmlns="http://www.w3.org/2000/svg" width="341.333" height="341.333"><path d="M145.629 339.096c-.896-.896-1.629-2.636-1.629-3.866 0-4.76 3.015-5.303 27.364-4.928 20.862.321 23.857.642 25.152 2.698 1.072 1.7 1.072 2.966 0 4.667-1.296 2.057-4.298 2.376-25.364 2.695-17.458.265-24.333-.076-25.523-1.266zm-10.674-21.341c-2.155-2.155-2.057-5.734.21-7.615 1.29-1.071 11.959-1.414 36.188-1.163 31.04.322 34.5.582 35.829 2.69 1.072 1.7 1.072 2.965 0 4.666-1.33 2.11-4.798 2.368-36.038 2.689-25.767.264-34.98-.058-36.19-1.267zm-8.45-23.712c-3.75-3.75-3.936-4.455-3.564-13.527.302-7.378.927-9.906 2.726-11.036 4.416-2.775 6.955.54 7.397 9.659l.397 8.194H210.54l.396-8.194c.442-9.119 2.981-12.434 7.397-9.66 1.8 1.131 2.424 3.659 2.726 11.037.372 9.072.187 9.777-3.564 13.527L213.538 298h-83.076zm40.215-19.312c-3.542-4.268 1.66-10.824 6.28-7.915 4.616 2.908 2.972 9.85-2.333 9.85-1.287 0-3.063-.87-3.947-1.935zM78 264.12c-5.84-2.589-16.554-12.517-20.896-19.364-2.656-4.189-3.77-7.668-3.77-11.772 0-7.353 1.383-10.016 9.595-18.472l6.624-6.82-3.924-7.846c-2.158-4.316-4.936-10.937-6.173-14.713l-2.248-6.865-11.174-.468c-12-.502-15.707-2.181-21.285-9.643-2.294-3.07-2.819-6.032-3.172-17.918-.382-12.84-.117-14.816 2.7-20.1 4.369-8.196 9.801-10.807 22.491-10.807h10.143l1.68-5.666c.923-3.117 3.722-10.111 6.22-15.543l4.542-9.877-8.01-8.341c-7.668-7.986-8.01-8.634-8.01-15.19 0-8.76 1.891-12.196 12.234-22.232C75.68 32.671 78.479 31.111 85.97 31.111c7.185 0 11.796 2.399 19.161 9.967l5.8 5.96 9.534-4.385c5.244-2.411 12.084-5.14 15.2-6.063l5.667-1.679V24.653c0-8.444.531-11.039 3-14.667C150.437 1.02 153.123 0 170.667 0 188.21 0 190.897 1.019 197 9.986c2.467 3.625 3 6.225 3 14.634v10.226l7.193 2.268c3.955 1.247 10.703 4.038 14.995 6.203l7.803 3.935 6.004-5.764c8.764-8.412 11.927-10.155 18.434-10.155 8.19 0 13.432 2.907 22.766 12.628C286.287 53.428 288 56.85 288 65.536c0 5.554-.63 6.684-8.01 14.37l-8.01 8.341 4.542 9.877c2.498 5.432 5.298 12.426 6.221 15.543l1.68 5.666h10.142c12.69 0 18.123 2.61 22.492 10.807 2.816 5.284 3.081 7.26 2.7 20.1-.354 11.886-.878 14.849-3.173 17.918-5.578 7.462-9.284 9.14-21.285 9.643l-11.174.468-2.248 6.865c-1.236 3.776-4.014 10.397-6.173 14.713l-3.924 7.846 6.624 6.82c8.225 8.469 9.596 11.117 9.596 18.532 0 7.285-4.037 13.503-15.57 23.981-13.126 11.927-22.41 11.843-34.38-.308l-6.603-6.705-4.294 4.162c-3.384 3.28-5.022 3.98-7.724 3.302-5.424-1.362-4.397-5.957 2.95-13.194 3.509-3.456 7.576-6.283 9.039-6.283 1.503 0 6.393 3.768 11.249 8.667 11.626 11.73 13.727 11.7 25.702-.367 11.947-12.039 11.97-14.065.298-25.633-4.767-4.725-8.667-9.649-8.667-10.943 0-1.294 2.095-6.301 4.656-11.128 2.56-4.827 5.943-13.085 7.518-18.352 1.574-5.268 3.453-10.327 4.174-11.244.89-1.13 5.515-1.667 14.385-1.667 12.535 0 13.187-.144 15.837-3.513 2.34-2.974 2.763-5.39 2.763-15.748 0-16.865-1.154-18.072-17.276-18.072-6.511 0-12.78-.361-13.932-.803-1.188-.456-3.311-4.927-4.909-10.334-1.548-5.241-5.155-14.051-8.015-19.577C262.34 93.759 260 88.342 260 87.247c0-1.095 3.9-5.856 8.667-10.58 11.401-11.3 11.606-14.369 1.666-24.933-5.857-6.226-13.015-11.067-16.36-11.067-.428 0-5.216 4.2-10.64 9.333-5.423 5.133-10.707 9.333-11.74 9.333-1.035 0-5.891-2.09-10.793-4.645-4.901-2.555-13.236-5.938-18.522-7.518-5.286-1.58-10.361-3.463-11.278-4.185-1.13-.89-1.667-5.515-1.667-14.385 0-12.535-.144-13.187-3.513-15.837-2.945-2.316-5.396-2.763-15.153-2.763-9.708 0-12.216.453-15.108 2.727-3.275 2.576-3.488 3.482-3.846 16.333l-.38 13.605L142 45.61c-5.133 1.62-14.568 5.487-20.966 8.592L109.4 59.849l-9.891-9.591c-5.44-5.275-10.885-9.591-12.1-9.591-3.983 0-9.332 3.622-16.427 11.124-9.924 10.493-9.715 13.578 1.685 24.876 4.766 4.724 8.666 9.384 8.666 10.356 0 .971-2.668 7.288-5.93 14.038-3.262 6.75-6.639 15.272-7.504 18.939-.865 3.667-2.51 7.417-3.657 8.333-1.33 1.064-6.558 1.667-14.445 1.667C33.038 130 32 131.068 32 148.312c0 11.468.264 12.74 3.273 15.749 3.014 3.014 4.27 3.272 15.921 3.272 8.67 0 12.98.525 13.7 1.667.577.917 2.64 6.591 4.585 12.61 1.945 6.02 5.408 14.26 7.695 18.313 2.288 4.054 4.16 8.081 4.16 8.95 0 .87-3.9 5.62-8.667 10.557-11.988 12.418-11.937 14.975.537 27.018 12.174 11.753 14.015 11.769 25.463.219 5.054-5.1 9.723-8.667 11.345-8.667 3.592 0 15.321 11.92 15.321 15.57 0 2.545-2.296 4.43-5.396 4.43-.647 0-3.199-1.774-5.669-3.943l-4.49-3.944-5.89 6.05c-9.577 9.84-16.704 12.032-25.888 7.959Zm88.772-21.328c-.974-1.172-1.409-5.735-1.164-12.193.308-8.096.895-10.636 2.725-11.786 1.697-1.067 2.97-1.067 4.667 0 1.83 1.15 2.418 3.69 2.725 11.786.409 10.77-.777 14.067-5.058 14.067-1.287 0-3.04-.843-3.895-1.874zm-62.005-26.015c-2.909-3.214-1.894-5.235 6.984-13.915 7.119-6.959 11.215-7.554 13.012-1.891.724 2.278-.676 4.359-7.132 10.598-4.418 4.27-8.599 7.763-9.292 7.763-.692 0-2.3-1.15-3.572-2.555zm118.935-5.208c-6.455-6.24-7.855-8.32-7.132-10.598 1.797-5.663 5.894-5.068 13.012 1.891 8.879 8.68 9.893 10.7 6.984 13.915-1.272 1.405-2.88 2.555-3.572 2.555-.693 0-4.874-3.493-9.292-7.763zm-71.264-8.075c-14.013-5.194-25.306-15.54-32.142-29.445-3.312-6.737-3.63-8.725-3.63-22.717 0-14.252.276-15.897 3.911-23.333 5-10.227 16.529-21.757 26.756-26.756 7.436-3.635 9.082-3.91 23.334-3.91 14.252 0 15.897.275 23.333 3.91 10.227 5 21.757 16.529 26.756 26.756 3.635 7.436 3.91 9.081 3.91 23.333 0 14.252-.275 15.898-3.91 23.334-5.042 10.314-16.543 21.784-26.756 26.683-10.684 5.125-30.731 6.16-41.562 2.145zm36.389-11.484c28.845-12.836 35.49-52.42 12.316-73.358-26.446-23.892-67.918-9.933-74.316 25.014-6.389 34.901 29.435 62.835 62 48.344zM78.982 155.115c-.907-.906-1.649-2.655-1.649-3.885 0-4.175 3.369-5.361 14.067-4.955 8.096.307 10.636.894 11.786 2.725 1.067 1.697 1.067 2.97 0 4.667-1.157 1.84-3.693 2.414-12.011 2.715-7.056.256-11.09-.163-12.193-1.267zm160 0c-.907-.906-1.649-2.655-1.649-3.885 0-4.175 3.369-5.361 14.067-4.955 8.096.307 10.636.894 11.786 2.725 1.067 1.697 1.067 2.97 0 4.667-1.157 1.84-3.693 2.414-12.011 2.715-7.056.256-11.09-.163-12.193-1.267zM110.203 98.1c-4.145-4.346-7.536-8.453-7.536-9.127 0-1.416 4.396-5.639 5.87-5.639 1.763 0 16.796 15.015 16.796 16.775 0 .936-.943 2.644-2.095 3.797-3.337 3.336-5.037 2.58-13.035-5.806zm107.892 5.806c-1.152-1.153-2.095-2.861-2.095-3.797 0-1.898 15.101-16.775 17.028-16.775 1.416 0 5.639 4.397 5.639 5.871 0 1.762-15.014 16.796-16.775 16.796-.936 0-2.644-.943-3.797-2.095zm-51.323-21.112c-.974-1.172-1.409-5.735-1.164-12.193.308-8.096.895-10.636 2.725-11.786 1.697-1.067 2.97-1.067 4.667 0 1.83 1.15 2.418 3.69 2.725 11.786.409 10.77-.777 14.067-5.058 14.067-1.287 0-3.04-.843-3.895-1.874z" style="fill:#000"/></svg>