<svg xmlns="http://www.w3.org/2000/svg" width="150" height="150" fill="none"><path fill="#8257e6" d="M75 90.295c7.543 0 13.658-6.848 13.658-15.295S82.543 59.705 75 59.705c-7.543 0-13.658 6.848-13.658 15.295S67.457 90.295 75 90.295z" style="fill:#ff521b;stroke-width:2.49669;fill-opacity:1"/><path fill="#8257e6" d="M126.877 49.776c-2.636-1.073-5.392-2.146-8.267-3.085.72-3.22 1.318-6.44 1.797-9.526 2.516-17.71-.24-30.188-7.907-35.018C110.224.67 107.708 0 104.832 0 96.446 0 85.782 6.977 75 18.65 64.217 6.976 53.554 0 45.168 0c-2.876 0-5.392.67-7.668 2.147-7.668 4.964-10.423 17.441-7.907 35.018.479 3.086 1.078 6.305 1.797 9.526-2.876.939-5.631 1.878-8.267 3.085C8.147 56.216 0 65.072 0 75s8.267 18.784 23.123 25.224c2.636 1.073 5.391 2.146 8.267 3.085-.72 3.22-1.318 6.44-1.797 9.526-2.516 17.71.24 30.188 7.907 35.018 2.276 1.476 4.792 2.147 7.668 2.147 8.506 0 19.17-6.977 29.832-18.65C85.783 143.024 96.446 150 104.832 150c2.876 0 5.392-.67 7.668-2.147 7.668-4.964 10.423-17.441 7.907-35.018a148.701 148.701 0 0 0-1.797-9.526c2.875-.939 5.631-1.878 8.267-3.085C141.853 93.784 150 84.928 150 75s-8.147-18.784-23.123-25.224Zm-17.732-40.92c4.912 3.22 6.59 13.148 4.553 27.235-.36 2.818-.958 5.77-1.677 8.855-6.23-1.61-12.82-2.683-19.769-3.354a191.55 191.55 0 0 0-12.46-17.442c8.866-9.794 17.852-16.502 25.16-16.502 1.558 0 2.995.402 4.193 1.207zm-13.418 79.56c-2.157 4.294-4.673 8.588-7.309 12.88-4.432.404-8.865.538-13.418.538-4.673 0-9.106-.134-13.419-.537a173.385 173.385 0 0 1-7.188-12.88A226.177 226.177 0 0 1 48.043 75a226.177 226.177 0 0 1 6.35-13.417c2.157-4.293 4.672-8.586 7.308-12.88 4.433-.403 8.866-.536 13.419-.536 4.672 0 9.105.133 13.418.536a173.384 173.384 0 0 1 7.189 12.88A226.175 226.175 0 0 1 102.077 75c-2.037 4.428-4.074 8.855-6.35 13.417zm9.944-4.427c1.797 4.696 3.235 9.258 4.553 13.82-4.074 1.073-8.387 1.878-12.94 2.549 1.438-2.55 2.995-5.233 4.313-8.05 1.438-2.818 2.756-5.635 4.074-8.319zM75 120.35c-2.876-3.488-5.631-7.245-8.267-11.136 2.756.134 5.511.268 8.267.268 2.756 0 5.511-.134 8.267-.268-2.636 3.89-5.392 7.648-8.267 11.136zm-22.284-20.125c-4.553-.671-8.866-1.476-12.94-2.55 1.318-4.427 2.756-9.123 4.553-13.819 1.318 2.684 2.636 5.501 4.074 8.184 1.437 2.952 2.875 5.501 4.313 8.185zM44.329 66.01c-1.797-4.696-3.235-9.258-4.553-13.82 4.074-1.073 8.387-1.878 12.94-2.549-1.438 2.55-2.995 5.233-4.313 8.05-1.438 2.818-2.756 5.635-4.074 8.319zM75 29.65c2.875 3.489 5.63 7.245 8.267 11.136-2.756-.134-5.511-.268-8.267-.268-2.756 0-5.511.134-8.267.268 2.636-3.89 5.391-7.647 8.267-11.136zm26.597 28.175-4.313-8.05c4.553.671 8.866 1.476 12.94 2.55-1.318 4.427-2.756 9.123-4.553 13.819-1.318-2.818-2.636-5.635-4.074-8.319zM36.302 36.091c-2.037-14.087-.36-24.016 4.553-27.236 1.198-.805 2.635-1.207 4.193-1.207 7.188 0 16.174 6.574 25.16 16.502-4.194 5.099-8.387 11.002-12.46 17.442-6.95.671-13.539 1.878-19.769 3.354-.719-3.086-1.198-6.037-1.677-8.855zM6.709 75c0-6.306 6.83-13.014 18.81-17.979 2.396-1.073 5.032-2.012 7.668-2.817a210.494 210.494 0 0 0 7.188 20.93c-2.875 7.111-5.39 14.088-7.188 20.796C16.653 90.563 6.709 82.514 6.709 75Zm34.146 66.145c-4.913-3.22-6.59-13.149-4.553-27.236.36-2.818.958-5.77 1.677-8.855 6.23 1.61 12.82 2.683 19.769 3.354a191.596 191.596 0 0 0 12.46 17.442c-8.866 9.794-17.852 16.503-25.16 16.503-1.558 0-2.995-.403-4.193-1.208zm72.843-27.236c2.037 14.087.36 24.016-4.553 27.236-1.198.805-2.635 1.207-4.193 1.207-7.189 0-16.174-6.574-25.16-16.502 4.194-5.099 8.387-11.002 12.46-17.442 6.95-.671 13.539-1.878 19.769-3.354.719 3.086 1.198 6.037 1.677 8.855zm10.783-20.93c-2.396 1.073-5.032 2.012-7.668 2.817a210.493 210.493 0 0 0-7.188-20.93c2.875-7.111 5.39-14.088 7.188-20.796 16.534 5.367 26.478 13.417 26.478 20.93 0 6.306-6.95 13.014-18.81 17.979z" style="fill:#ff521b;stroke-width:2.49669;fill-opacity:1"/></svg>