<svg xmlns="http://www.w3.org/2000/svg" width="150" height="150"><path d="M42.87 7.858c-12.264 2.313-18.064 19.045-23.564 28.72C13.136 47.43 1.17 61.247.052 73.92c-.602 6.833 4.116 12.786 7.305 18.392 5.41 9.51 10.992 18.92 16.407 28.425 2.966 5.205 5.671 11.691 9.813 16.06 5.399 5.694 13.21 5.676 20.44 5.676h33.998c5.983 0 12.507.727 18.392-.45 13.141-2.63 18.181-18.204 24.302-28.532 4.482-7.564 8.843-15.211 13.196-22.85 2.194-3.85 5.23-7.77 5.879-12.262 1.212-8.382-2.89-14.246-6.914-21.179a7772.377 7772.377 0 0 1-16.399-28.424c-3-5.22-5.717-11.886-10.056-16.11-6.006-5.85-13.43-5.069-21.155-5.069H60.705c-5.744 0-12.181-.806-17.835.26m30.099 22.32c3.283-.982 6.796.807 7.58 4.175 2.349 10.081.22 23.074.22 33.438 0 4.072.42 8.81-4.459 10.217-4.488 1.295-7.283-3.002-7.705-6.873-1.11-10.16-.113-20.988-.097-31.211.006-3.703.182-8.466 4.46-9.745m22.85 7.81c3.705-.222 7.507 3.86 9.703 6.402 6.285 7.276 10.345 16.489 10.36 26.186.037 22.65-15.266 40.05-37.898 42.757-25.223 3.016-47.046-21.07-44.116-45.543 1.158-9.676 7.14-26.457 17.92-29.297 3.888-1.025 8.226 2.231 6.74 6.446-1.023 2.898-4.053 4.518-6.015 6.71-3.14 3.509-5.607 7.71-6.905 12.24-6.02 20.998 12.376 40.696 33.49 38.36 18.438-2.041 30.274-22.37 24.663-39.475-2.33-7.105-7.986-10.396-11.839-16.258-2.209-3.36-.386-8.272 3.897-8.528z" style="fill:#ff521b;fill-opacity:1;stroke:none;stroke-width:.557338"/></svg>