<svg xmlns="http://www.w3.org/2000/svg" width="512" height="512"><path d="M238.132 402.544c-9.14-2.547-16.623-7.298-35.971-22.84-18.241-14.651-70.808-58.055-92.63-76.482l-10.99-9.28-3.19 10.222c-3.64 11.665-5.997 14.698-12.467 16.042-2.4.499-16.964 1.18-32.364 1.516-37.556.817-45.618-.477-49.263-7.903-2.263-4.611.976-55.689 6.358-100.247 4.06-33.617 13.04-93.34 14.995-99.724.969-3.163 5.441-5.776 9.887-5.776 8.303 0 58.008 9.308 82.523 15.454 12.96 3.249 14.478 3.407 38 3.973 13.475.323 33.138 1.086 43.696 1.694l19.196 1.105 8.438-3.624c25.625-11.006 51.21-11.328 76.17-.958 30.797 12.794 47.69 19.483 57.977 22.956l11.358 3.835 11.332-3.687c20.937-6.813 35.939-9.883 54.85-11.224 11.394-.808 29.1.908 33.89 3.286 14.586 7.239 31.744 71.574 40.565 152.1 1.343 12.262 1.329 13.708-.174 16.874-2.538 5.35-5.306 5.987-29.339 6.75-31.91 1.015-56.282-1.439-62.9-6.332l-2.716-2.008-4.816 3.687-4.815 3.688-.106 10.465c-.1 9.931-.282 10.79-3.54 16.8-5.177 9.549-14.154 15.93-24.843 17.66-3.63.587-4.562 1.251-6.166 4.394-5.78 11.33-24.485 20.55-37.96 18.71-4.168-.57-4.576-.398-7.674 3.22-8.991 10.505-28.628 14.902-43.352 9.707-4.15-1.464-4.532-1.444-6.49.347-1.145 1.047-4.106 2.944-6.581 4.216-5.796 2.98-22.48 3.728-30.888 1.384zm20.126-20.01c.926-.355-5.022-6.896-17.504-19.25-10.398-10.291-19.542-19.927-20.32-21.412-2.264-4.323-1.756-8.385 1.504-12.034 2.478-2.773 3.598-3.266 7.425-3.266h4.507l19.825 19.551c25.607 25.253 30.687 29.44 37.607 30.988 4.519 1.011 6.258.946 10.916-.408 4.83-1.404 8.877-4.034 7.694-5-16.043-13.115-55.461-49.39-56.755-52.23-2.099-4.605-1.393-8.344 2.263-12 2.524-2.525 4.27-3.4 6.777-3.4 4.25 0 6.176 1.328 17.465 12.043 9.987 9.48 40.181 36.3 47.362 42.069 5.797 4.658 8.903 5.347 15.486 3.433 3.722-1.082 6.26-2.636 8.534-5.226l3.237-3.686-3.92-3.567c-29.376-26.735-61.762-56.782-64.223-59.585-5.528-6.296-3.77-14.762 3.652-17.584 5.364-2.04 7.808-.321 34.116 23.995 44.54 41.167 46.818 43.107 50.612 43.107 6.61 0 11.634-8.153 10.09-16.38-1.514-8.07-14.29-24.261-39.055-49.491-24.63-25.092-57.63-54.222-75.294-66.463l-3.76-2.605-7.777 2.47c-4.278 1.358-9.035 2.47-10.57 2.47-2.16 0-3.517 1.007-5.982 4.44-8.719 12.14-20.571 22.285-31.17 26.68-7.656 3.173-21.974 3.17-30.154-.005-15.859-6.156-22.157-22.522-16.997-44.164 3.36-14.094 12.41-31.569 21.64-41.785l3.623-4.011-5.296-.559c-2.913-.307-14.971-.68-26.796-.827l-21.5-.27-.305 3c-1.405 13.833-12.372 60.205-22.788 96.362-3.566 12.377-6.354 23.052-6.195 23.722.31 1.309 46.394 40.078 90.306 75.971 36.274 29.65 38.262 31.14 44.538 33.367 5.23 1.856 14.252 2.665 17.182 1.54zm-191.25-82.342 7.488-.62 5.307-17c16.974-54.378 34.175-121.86 34.208-134.211.01-3.671.868-3.324-19.491-7.88-12.916-2.892-52.836-10.367-53.254-9.973-.14.132-1.817 10.1-3.726 22.152-8.026 50.652-13.654 100.248-15.158 133.583l-.67 14.83 18.904-.131c10.397-.072 22.274-.41 26.392-.75zm334.044-7.645c3.234-2.488 6.124-4.918 6.421-5.399 1.394-2.255-23.543-70.563-36.628-100.335-5.206-11.842-6.415-13.845-8.686-14.38-5.156-1.217-37.5-13.546-54.839-20.903-9.683-4.11-20.48-8.36-23.993-9.445-25.408-7.847-56.544 1.288-78.348 22.987-7.27 7.236-9.317 10.062-13.761 19-5.959 11.985-8.639 21.4-7.916 27.808.61 5.417 3.055 8.031 8.696 9.299 9.598 2.156 20.449-4.125 30.726-17.785 9.758-12.97 11.049-14.038 17.85-14.76 3.27-.347 10.016-1.966 14.99-3.596 12.184-3.995 14.879-3.875 22.092.986 24.01 16.18 69.892 56.747 93.553 82.718 11.937 13.102 22.795 26.234 22.805 27.58.01 1.376 1.116.783 7.038-3.775zm87.69 2.137c.858-.858-2.274-25.453-6.295-49.428-5.915-35.277-13.115-63.343-20.101-78.359l-3.571-7.675-7.628-.325c-11.298-.48-26.339.768-37.632 3.125-11.243 2.345-26.495 6.795-26.495 7.73 0 .338 3.096 7.86 6.88 16.717 8.737 20.453 21.826 55.761 31.27 84.357 5.588 16.92 7.8 22.4 9.226 22.858 6.116 1.967 52.525 2.82 54.346 1z" style="fill:#000"/></svg>